<?xml version="1.0" encoding="utf-8"?>
<!-- Generator: Adobe Illustrator 25.4.1, SVG Export Plug-In . SVG Version: 6.00 Build 0)  -->
<svg version="1.1" xmlns="http://www.w3.org/2000/svg" xmlns:xlink="http://www.w3.org/1999/xlink" x="0px" y="0px"
	 viewBox="0 0 1000 1000" style="enable-background:new 0 0 1000 1000;" xml:space="preserve">
<style type="text/css">
	.st0{display:none;}
	.st1{display:inline;fill:#111522;}
	.st2{fill:#F0EFEF;}
</style>
<g id="Layer_1" class="st0">
	<rect class="st1" width="1000" height="1000"/>
</g>
<g id="Layer_2">
	<g>
		<circle class="st2" cx="519.11" cy="391.83" r="25.54"/>
		<circle class="st2" cx="661.58" cy="391.83" r="25.54"/>
		<path class="st2" d="M730.72,850.45c-65.45,40.18-140.83,61.07-218.01,60.47c-109.76-0.89-212.6-44.47-289.58-122.72
			c-76.98-78.24-118.88-181.78-117.99-291.54c0.89-109.76,44.48-212.6,122.72-289.58c78.24-76.98,181.84-118.82,291.54-117.99
			c77.17,0.63,152.21,22.76,217,64.01C796.1,191.1,844.92,243.82,878.28,306l62.19-32.23C904.9,207,854.04,149.53,791.26,105.62
			c-79.77-55.79-173.58-85.7-271.3-86.49c-1.34-0.01-2.68-0.02-4.02-0.02c-126.95,0-246.54,48.95-337.15,138.09
			C87.22,247.29,36.22,367.64,35.18,496.09C34.13,624.53,83.17,745.7,173.25,837.26c90.09,91.56,210.44,142.57,338.88,143.61
			c1.33,0.01,2.67,0.02,4,0.02c96.3,0,189.1-28.34,268.67-82.08c65.67-44.36,118.82-103.44,155.67-172.58l-62.14-32.2
			C843.89,758.23,792.94,812.24,730.72,850.45z"/>
		<path class="st2" d="M382.89,716.87c-38.39-23.62-69.93-57.06-91.21-96.73l-4.32-8.04l-56.3,29.17l4.41,8.27
			c24.28,45.56,59.86,85,102.89,114.07c52.55,35.5,113.97,54.26,177.6,54.26l2.64-0.01c84.9-0.69,164.45-34.4,224-94.93
			c59.54-60.52,91.96-140.61,91.27-225.51c-0.69-84.9-34.4-164.45-94.93-224c-59.83-58.86-138.97-91.28-222.86-91.28l-2.66,0.01
			c-64.59,0.53-126.6,20.3-179.33,57.18c-41.09,28.74-75.19,67.17-98.62,111.14l-4.41,8.27l56.34,29.19l4.32-8.05
			c20.65-38.5,51.04-71.24,87.87-94.69c40.11-25.53,86.57-39.24,134.35-39.63c0.66-0.01,1.33-0.01,1.99-0.01
			c67.26,0,130.6,25.9,178.54,73.07c48.45,47.67,75.43,111.34,75.99,179.31C771,565.89,745.05,630,697.38,678.45
			c-31.13,31.65-69.1,54.13-110.63,66.07C348.7,483.55,730.48,542.35,730.48,542.35S426.1,432.99,382.89,716.87z"/>
	</g>
</g>
</svg>
