<svg width="32" height="32" viewBox="0 0 32 32" fill="none" xmlns="http://www.w3.org/2000/svg">
<path d="M19.684 8.8633L16.2554 7.06328C16.1761 7.02166 16.0887 7 16 7C15.9113 7 15.8239 7.02166 15.7446 7.06328L12.316 8.8633C12.221 8.91314 12.1411 8.98979 12.0853 9.08465C12.0295 9.1795 12 9.28881 12 9.40031V13.6004C12.0001 13.7118 12.0296 13.8209 12.0855 13.9157C12.1413 14.0104 12.2211 14.087 12.316 14.1368L15.7446 15.9368C15.8239 15.9784 15.9113 16 16 16C16.0887 16 16.1761 15.9784 16.2554 15.9368L19.684 14.1368C19.7789 14.087 19.8587 14.0104 19.9145 13.9157C19.9704 13.8209 19.9999 13.7118 20 13.6004V9.40031C20 9.28881 19.9705 9.1795 19.9147 9.08465C19.8589 8.98979 19.779 8.91314 19.684 8.8633ZM16 8.2711L18.1509 9.40031L16 10.5295L13.8491 9.40031L16 8.2711ZM13.1429 10.3711L15.4286 11.5711V14.4296L13.1429 13.2296V10.3711ZM16.5714 14.4296V11.5711L18.8571 10.3711V13.2296L16.5714 14.4296Z" fill="white"/>
<path d="M15.5 26C16.3284 26 17 25.3284 17 24.5C17 23.6716 16.3284 23 15.5 23C14.6716 23 14 23.6716 14 24.5C14 25.3284 14.6716 26 15.5 26Z" fill="white"/>
<path d="M22 30H9C8.46973 29.9995 7.96133 29.7886 7.58637 29.4136C7.21141 29.0387 7.00053 28.5303 7 28V4C7.00053 3.46973 7.21141 2.96133 7.58637 2.58637C7.96133 2.21141 8.46973 2.00053 9 2H22V4H9V28H22V4H24V28C23.9995 28.5303 23.7886 29.0387 23.4136 29.4136C23.0387 29.7886 22.5303 29.9995 22 30Z" fill="white"/>
<path d="M24 4C23.9995 3.46973 23.7885 2.96133 23.4136 2.58637C23.0386 2.21141 22.5302 2.00053 21.9999 2V4C22.5 4 23.5 4 24 4C23.9995 4.50849 24 4.79278 24 4Z" fill="white"/>
</svg>
