<svg width="32" height="32" viewBox="0 0 32 32" fill="none" xmlns="http://www.w3.org/2000/svg">
<path d="M27.447 9.10498L21.447 6.10498C21.3082 6.03562 21.1552 5.99951 21 5.99951C20.8448 5.99951 20.6918 6.03562 20.553 6.10498L14.553 9.10498C14.3868 9.18804 14.247 9.31579 14.1493 9.47388C14.0516 9.63197 13.9999 9.81415 14 9.99998V17C14.0001 17.1856 14.0519 17.3676 14.1496 17.5255C14.2472 17.6834 14.3869 17.811 14.553 17.894L20.553 20.894C20.6918 20.9633 20.8448 20.9993 21 20.9993C21.1552 20.9993 21.3082 20.9633 21.447 20.894L27.447 17.894C27.6131 17.811 27.7528 17.6834 27.8504 17.5255C27.9481 17.3676 27.9999 17.1856 28 17V9.99998C28.0001 9.81415 27.9484 9.63197 27.8507 9.47388C27.753 9.31579 27.6132 9.18804 27.447 9.10498ZM21 8.11798L24.764 9.99998L21 11.882L17.236 9.99998L21 8.11798ZM16 11.618L20 13.618V18.382L16 16.382V11.618ZM22 18.382V13.618L26 11.618V16.382L22 18.382Z" fill="white"/>
<path d="M13.5 26C14.3284 26 15 25.3284 15 24.5C15 23.6716 14.3284 23 13.5 23C12.6716 23 12 23.6716 12 24.5C12 25.3284 12.6716 26 13.5 26Z" fill="white"/>
<path d="M20 30H7C6.46973 29.9995 5.96133 29.7886 5.58637 29.4136C5.21141 29.0387 5.00053 28.5303 5 28V4C5.00053 3.46973 5.21141 2.96133 5.58637 2.58637C5.96133 2.21141 6.46973 2.00053 7 2H20V4H7V28H20V24H22V28C21.9995 28.5303 21.7886 29.0387 21.4136 29.4136C21.0387 29.7886 20.5303 29.9995 20 30Z" fill="white"/>
</svg>
