<svg width="98" height="98" viewBox="0 0 98 98" fill="none" xmlns="http://www.w3.org/2000/svg">
<path d="M64.1173 37.7598L64.0972 36.0151L46.2868 31.54L45.1671 33.7336L45.1958 36.1319L64.1173 37.7598Z" fill="white" fill-opacity="0.35"/>
<path d="M64.1173 51.3126L65.5911 49.4368L67.8 48.9229L69.8432 50.1182L70.2461 52.0083L69.1207 54.0372L66.6056 54.7177L64.5202 53.1615L64.1173 51.3126Z" fill="white" fill-opacity="0.35"/>
<path d="M39.4412 46.4397L47.3099 51.042L48.8622 58.3222L45.4609 64.452L68.3761 63.2279L67.2726 56.7373L62.1209 56.3689V48.6418L67.3339 47.7221L68.0086 39.0131L36.239 36.9277L33.8473 39.0131L33.61 47.7967L39.4412 46.4397Z" fill="white" fill-opacity="0.35"/>
<path d="M27.6678 56.0448L32.1831 50.295L38.955 48.7188L45.2159 52.3823L46.4514 58.1752L43.0013 64.393L35.2925 66.4803L28.9033 61.7104L27.6678 56.0448Z" fill="#FF4A83"/>
<path d="M42.3544 59.6545H31.1399V56.1058L41.9113 55.0703L42.3544 59.6545Z" fill="white"/>
</svg>
