<svg width="58" height="59" viewBox="0 0 58 59" fill="none" xmlns="http://www.w3.org/2000/svg">
<g opacity="0.35" filter="url(#filter0_d_322_199)">
<path d="M49.3408 18.204L46.6016 8.89L44.3405 7.36523L33.7329 8.04719L19.6339 22.3546L8.60938 26.3285L8.66148 30.6762L19.285 33.3995L26.7842 40.1194L32.8787 50.8109L38.1169 48.2462L38.9461 36.2814L38.9733 36.2723L49.3408 18.204ZM31.1659 15.9588L35.7629 14.7829L39.8252 16.387L41.5357 22.1598L37.6343 25.7417L31.755 25.1005L30.1509 19.1148L31.1659 15.9588Z" fill="white"/>
<path d="M12.2412 37.423L22.4207 46.2227L24.965 41.3221L18.3629 35.2412L12.2412 37.423Z" fill="white"/>
</g>
<defs>
<filter id="filter0_d_322_199" x="-4" y="0" width="66" height="66" filterUnits="userSpaceOnUse" color-interpolation-filters="sRGB">
<feFlood flood-opacity="0" result="BackgroundImageFix"/>
<feColorMatrix in="SourceAlpha" type="matrix" values="0 0 0 0 0 0 0 0 0 0 0 0 0 0 0 0 0 0 127 0" result="hardAlpha"/>
<feOffset dy="4"/>
<feGaussianBlur stdDeviation="2"/>
<feComposite in2="hardAlpha" operator="out"/>
<feColorMatrix type="matrix" values="0 0 0 0 0 0 0 0 0 0 0 0 0 0 0 0 0 0 0.25 0"/>
<feBlend mode="normal" in2="BackgroundImageFix" result="effect1_dropShadow_322_199"/>
<feBlend mode="normal" in="SourceGraphic" in2="effect1_dropShadow_322_199" result="shape"/>
</filter>
</defs>
</svg>
