<?xml version="1.0" encoding="utf-8"?>
<!-- Generator: Adobe Illustrator 25.2.1, SVG Export Plug-In . SVG Version: 6.00 Build 0)  -->
<svg version="1.1" id="Layer_1" xmlns="http://www.w3.org/2000/svg" xmlns:xlink="http://www.w3.org/1999/xlink" x="0px" y="0px"
	 viewBox="0 0 50 50" style="enable-background:new 0 0 50 50;" xml:space="preserve">
<style type="text/css">
	.st0{fill:url(#SVGID_1_);}
</style>
<linearGradient id="SVGID_1_" gradientUnits="userSpaceOnUse" x1="24.766" y1="6.6229" x2="24.766" y2="40.0099">
	<stop  offset="0" style="stop-color:#64E5F8;stop-opacity:0.05"/>
	<stop  offset="1" style="stop-color:#64E5F8;stop-opacity:0.3"/>
</linearGradient>
<path class="st0" d="M35.4,32.81c-0.21-1.12-0.16-0.56-3.43-2.3c-3.27-1.74-2.87-4.95-3.11-5.27c-0.24-0.32-1.32,0.73-1.19-0.3
	c0.12-1.03,1.96-9.97,2.05-10.34c0.09-0.37-1.31-0.59-2.28-0.89c-5.52-1.7-10.02-1.25-10.9-1.29c-0.88-0.04-0.39,0.38-0.39,0.91
	c0,0.53-0.28,9.06-0.56,10.18c-0.28,1.12-1.77,1.81-1.99,2.68c-0.22,0.87-1.21,4.86-0.46,5.04c0.75,0.19,2.4-0.06,4.52,0.46
	c2.12,0.53,1.87,1,5.08,2.46s7.16,2.58,10.25,2.95c3.08,0.37,3.02,0.09,3.58-1.62C37.11,33.78,35.62,33.94,35.4,32.81z M22.95,14.46
	c1.76-0.33,5.61,0.79,5.61,0.79l-2.09,9.91l-3.97,0.54L22.95,14.46z M24.51,27.09l3.36-0.73l0.51,1.73l-2.14,1.05L24.51,27.09z
	 M34.28,33.01c-0.2,0.46-0.13,0.66-3.2,0.06c-3.06-0.59-3.34-2.4-3.34-2.4l1.75-1.27c0,0,0.88,1.38,2.71,2.16
	C34.02,32.35,34.47,32.55,34.28,33.01z"/>
</svg>
