<svg width="139" height="73" viewBox="0 0 139 73" fill="none" xmlns="http://www.w3.org/2000/svg">
<g clip-path="url(#clip0_168_305)">
<path d="M94.1498 113.258L93.5909 109.093L93.7027 104.392L93.6654 97.102L91.616 94.3052L91.3551 84.2484L92.2122 76.7504L90.0137 68.9251L86.6973 63.4504L86.7719 54.9408L84.6479 50.9537L83.0456 49.2578L83.0829 47.4725L87.219 40.1233L88.0015 41.4622L88.784 41.6408L88.7468 45.6576L91.3924 50.2099L90.4608 52.1737L90.9825 56.1309L93.9262 60.1179L94.6715 63.7777L93.889 65.4141L92.9202 67.4077L93.8517 69.907L95.2677 69.6094L94.8951 67.9135L95.9757 67.5862L97.4662 69.1334L96.7582 70.9781L94.8951 72.6443L95.9757 73.9833L97.9878 72.6443L100 70.026L98.584 66.158L97.7643 59.4634L98.584 56.3987L97.3544 51.7571L96.0129 50.3289L95.4167 44.4971L95.0068 37.8323L95.4167 32.1195L93.181 29.1739L88.4859 27.4184L88.2996 27.5969L88.1506 27.3887L83.6046 27.5374L78.2388 25.0083L77.9407 22.5685L80.4373 19.2658L80.5118 17.6294L81.4806 17.4806L82.1513 15.8144L81.8532 13.6721H81.108L80.6608 13.9696L80.7354 12.3034L78.9095 9.50656L76.2639 8.31641H71.1589L68.4015 10.4587L67.7681 13.1365L68.5878 15.3978L67.8799 16.2309L68.9232 20.5453L70.0411 21.7949L70.5627 24.0562L67.4327 27.0614L62.5513 27.4184L58.9741 28.5491L55.8441 31.8815L56.2913 37.9215L55.8441 44.9732L55.2106 51.1323L53.7947 52.62L52.4905 57.5294L53.3848 60.7428L52.4905 67.7945L51 71.9005L53.1612 74.6379L55.2479 76.066L56.403 74.6379L54.4654 72.8824L53.6829 70.9484L55.2479 69.3119L56.403 69.6689L55.9932 71.4542L57.5209 71.7517L58.4897 69.1334L57.4464 67.0208L56.6639 65.3249L57.4091 61.4271L60.5392 57.2318L61.0608 53.0663L60.092 50.9835L62.8867 46.1634L62.8494 41.9681L63.6692 41.73L64.8989 42.5631L67.3582 49.1388L66.8365 51.3703L63.8555 61.3676L62.7376 66.9316L62.4768 73.5965L64.2654 84.6352L64.8243 88.0569L63.4456 89.9016L63.3338 91.9844L64.9361 93.1448L66.203 110.908L65.8677 112.663L62.8867 114.002L57.0365 116.412L55.7323 118.257L71.7551 117.811L72.724 115.282L70.4509 111.919L69.892 108.111L74.2144 97.0128V94.3944L70.749 90.1694L71.0844 86.6287L74.4753 77.405L73.7673 69.1036L74.9224 65.92L76.0403 65.8307L77.1582 68.1813L77.6053 75.6197L80.5118 84.0698L84.7224 91.1215V93.5613L83.1574 97.5781L86.9954 105.522L89.5293 108.914L88.8586 116.026L91.0198 118.257V121.47L92.9947 122.899L98.8821 122.512L100 120.191L97.2798 117.097L94.1498 113.258Z" fill="url(#paint0_linear_168_305)"/>
</g>
<defs>
<linearGradient id="paint0_linear_168_305" x1="75.5071" y1="-0.197673" x2="75.5071" y2="123.816" gradientUnits="userSpaceOnUse">
<stop stop-color="#64E5F8" stop-opacity="0.05"/>
<stop offset="1" stop-color="#64E5F8" stop-opacity="0.3"/>
</linearGradient>
<clipPath id="clip0_168_305">
<rect width="139" height="73" fill="white"/>
</clipPath>
</defs>
</svg>
