<?xml version="1.0" encoding="utf-8"?>
<!-- Generator: Adobe Illustrator 25.2.1, SVG Export Plug-In . SVG Version: 6.00 Build 0)  -->
<svg version="1.1" id="Layer_1" xmlns="http://www.w3.org/2000/svg" xmlns:xlink="http://www.w3.org/1999/xlink" x="0px" y="0px"
	 viewBox="0 0 50 50" style="enable-background:new 0 0 50 50;" xml:space="preserve">
<style type="text/css">
	.st0{fill:url(#SVGID_1_);}
</style>
<linearGradient id="SVGID_1_" gradientUnits="userSpaceOnUse" x1="26.7468" y1="9.597" x2="26.7468" y2="38.6219">
	<stop  offset="0" style="stop-color:#64E5F8;stop-opacity:0.05"/>
	<stop  offset="1" style="stop-color:#64E5F8;stop-opacity:0.3"/>
</linearGradient>
<path class="st0" d="M38,21.03l-2.32-0.06l-0.82,1.65h-0.48l0.75-5.91l-1.5-2.86l-2.86-2.61h-4.02h-4.02l-2.86,2.61l-1.5,2.86
	l0.75,5.91h-0.48l-0.82-1.65l-2.32,0.06l-0.55,4.01l2.18,3.88h1.43l0.27,3.24l3.27,3.82l3.48,2.29h1.16h1.16l3.48-2.29l3.27-3.82
	l0.27-3.24h1.43l2.18-3.88L38,21.03z M22.21,24.64l1.93-0.46l-0.23-0.83l-2.52-0.34l-1.05-1.37l0.36-0.46h3.53l1.31,1.37v1.83
	l-0.82,0.69l-2.39,0.46L22.21,24.64z M29.05,34.04h-4.13v-0.95h4.13V34.04z M27.99,31.1h-2.18l-1.6-1.18l0.87-0.68l1.1,0.74h1.1
	l1.13-0.74l0.95,0.74L27.99,31.1z M31.8,23.01l-2.52,0.34l-0.23,0.83l1.93,0.46l-0.13,0.88l-2.39-0.46l-0.82-0.69v-1.83l1.31-1.37
	h3.53l0.36,0.46L31.8,23.01z"/>
</svg>
