<?xml version="1.0" encoding="utf-8"?>
<!-- Generator: Adobe Illustrator 25.2.1, SVG Export Plug-In . SVG Version: 6.00 Build 0)  -->
<svg version="1.1" id="Layer_1" xmlns="http://www.w3.org/2000/svg" xmlns:xlink="http://www.w3.org/1999/xlink" x="0px" y="0px"
	 viewBox="0 0 50 50" style="enable-background:new 0 0 50 50;" xml:space="preserve">
<style type="text/css">
	.st0{fill:url(#SVGID_1_);}
	.st1{fill:url(#SVGID_2_);}
	.st2{fill:url(#SVGID_3_);}
	.st3{fill:url(#SVGID_4_);}
	.st4{fill:url(#SVGID_5_);}
	.st5{fill:url(#SVGID_6_);}
</style>
<g>
	<linearGradient id="SVGID_1_" gradientUnits="userSpaceOnUse" x1="13.4509" y1="9.6128" x2="13.4509" y2="39.0015">
		<stop  offset="0" style="stop-color:#64E5F8;stop-opacity:0.05"/>
		<stop  offset="1" style="stop-color:#64E5F8;stop-opacity:0.3"/>
	</linearGradient>
	<polygon class="st0" points="12.92,32.79 15.28,35.07 14.46,37.14 11.62,39.33 12.78,36.06 	"/>
	<linearGradient id="SVGID_2_" gradientUnits="userSpaceOnUse" x1="16.3005" y1="9.6128" x2="16.3005" y2="39.0015">
		<stop  offset="0" style="stop-color:#64E5F8;stop-opacity:0.05"/>
		<stop  offset="1" style="stop-color:#64E5F8;stop-opacity:0.3"/>
	</linearGradient>
	<polygon class="st1" points="15.67,35.59 17.32,36.86 15.28,38.19 	"/>
	<linearGradient id="SVGID_3_" gradientUnits="userSpaceOnUse" x1="36.3364" y1="9.6128" x2="36.3364" y2="39.0015">
		<stop  offset="0" style="stop-color:#64E5F8;stop-opacity:0.05"/>
		<stop  offset="1" style="stop-color:#64E5F8;stop-opacity:0.3"/>
	</linearGradient>
	<polygon class="st2" points="36.86,32.79 34.5,35.07 35.32,37.14 38.17,39.33 37.01,36.06 	"/>
	<linearGradient id="SVGID_4_" gradientUnits="userSpaceOnUse" x1="33.4868" y1="9.6128" x2="33.4868" y2="39.0015">
		<stop  offset="0" style="stop-color:#64E5F8;stop-opacity:0.05"/>
		<stop  offset="1" style="stop-color:#64E5F8;stop-opacity:0.3"/>
	</linearGradient>
	<polygon class="st3" points="34.12,35.59 32.47,36.86 34.5,38.19 	"/>
	<g>
		<linearGradient id="SVGID_5_" gradientUnits="userSpaceOnUse" x1="23.7799" y1="9.6128" x2="23.7799" y2="39.0015">
			<stop  offset="0" style="stop-color:#64E5F8;stop-opacity:0.05"/>
			<stop  offset="1" style="stop-color:#64E5F8;stop-opacity:0.3"/>
		</linearGradient>
		<polygon class="st4" points="17,13.85 17,15.29 17.93,14.95 18.42,16.06 23.77,17.49 28.63,17.13 31.8,15.29 31.41,13.85 
			32.89,14.39 33.06,13.93 32.07,12.75 25.03,10.16 20.66,11.11 16.74,12.72 14.5,14.95 		"/>
		<linearGradient id="SVGID_6_" gradientUnits="userSpaceOnUse" x1="24.5496" y1="9.6128" x2="24.5496" y2="39.0015">
			<stop  offset="0" style="stop-color:#64E5F8;stop-opacity:0.05"/>
			<stop  offset="1" style="stop-color:#64E5F8;stop-opacity:0.3"/>
		</linearGradient>
		<polygon class="st5" points="35.91,17.41 34.2,16.72 34.25,17.85 32.12,16.72 29.01,18.21 23.88,19.16 17.93,17.55 15.8,19.52 
			15.91,17.07 13.18,18.98 12.57,16.88 11.62,19.4 11.18,27.36 13.18,32.29 20.21,38.66 19.87,35.4 17.22,32.44 16.67,30.84 
			14.5,26.99 15.3,22.81 16.69,25.34 17.69,21.94 20.93,24.19 20.8,20.49 25.89,27.08 30.75,21.11 31.28,23.32 33.99,21.11 
			35.27,26.21 33.07,31.21 30.41,35.04 30.68,37.65 36.6,32.33 37.53,27.36 37.92,23.19 		"/>
	</g>
</g>
</svg>
