<?xml version="1.0" encoding="utf-8"?>
<!-- Generator: Adobe Illustrator 25.2.1, SVG Export Plug-In . SVG Version: 6.00 Build 0)  -->
<svg version="1.1" id="Layer_1" xmlns="http://www.w3.org/2000/svg" xmlns:xlink="http://www.w3.org/1999/xlink" x="0px" y="0px"
	 viewBox="0 0 50 50" style="enable-background:new 0 0 50 50;" xml:space="preserve">
<style type="text/css">
	.st0{fill:url(#SVGID_1_);}
</style>
<linearGradient id="SVGID_1_" gradientUnits="userSpaceOnUse" x1="24.7468" y1="-1.7254" x2="24.7468" y2="45.8368">
	<stop  offset="0" style="stop-color:#64E5F8;stop-opacity:0.05"/>
	<stop  offset="1" style="stop-color:#64E5F8;stop-opacity:0.3"/>
</linearGradient>
<path class="st0" d="M32.72,7.92V2.49L22.26,3.34l-5.78-0.84l0.72,5.98L9.3,45.06L21.41,47l2.9-25.32l0.77-2.66l0.87-0.07l1.17,2.39
	l2.78,25.13l10.3-0.9L32.72,7.92z M21.53,5.04l0.88,0.02l-0.29,1.51h1.44l0.07-1.81l-2.05-0.34l2.56-0.24l-0.22,3.03l-2.71-0.24
	L21.53,5.04z M22.52,9.7l-4.19-1.18l3.84,0.24l10.08-1.21L22.52,9.7z"/>
</svg>
