<svg width="73" height="80" viewBox="0 0 73 80" fill="none" xmlns="http://www.w3.org/2000/svg">
<path d="M70.37 55.7504L70.84 35.9704L63.66 15.5604L53.4 11.8304L52.92 9.50043L53.81 5.22043L46.48 0.94043H25.91L20.17 3.78043L19.25 9.50043V11.4904L8.30998 15.5804L1.32998 36.0504L1.97998 55.8304L0.22998 57.1904L1.96998 63.6704L8.71998 63.3904L10.25 59.4004L12.5 53.4004L11.89 53.1004L13.85 37.2804L19.4 30.0604L20.17 45.0204L13.79 67.6804L20.17 76.4504L32.29 77.6304L33.81 67.6804H37.96L41.03 79.0504H52.91L59.19 70.1704L51.26 44.2804L52.68 30.1004L58.33 37.3104L60.43 53.1204L59.09 53.7904L61.45 59.0004L63.7 63.3804L70.46 63.5904L72.14 57.0904L70.37 55.7504ZM44.26 49.1004H40.21L43.19 18.6204L41.27 15.4204H31.68L29.76 17.9804L33.81 49.0904H29.76L22.09 9.50043L26.99 4.77043H33.81H44.68L49.37 9.50043L44.26 49.1004Z" fill="url(#paint0_linear_586_517)"/>
<defs>
<linearGradient id="paint0_linear_586_517" x1="36.185" y1="-10.9996" x2="36.185" y2="86.3246" gradientUnits="userSpaceOnUse">
<stop stop-color="#64E5F8" stop-opacity="0.05"/>
<stop offset="1" stop-color="#64E5F8" stop-opacity="0.3"/>
</linearGradient>
</defs>
</svg>
