<?xml version="1.0" encoding="utf-8"?>
<!-- Generator: Adobe Illustrator 25.2.1, SVG Export Plug-In . SVG Version: 6.00 Build 0)  -->
<svg version="1.1" id="Layer_1" xmlns="http://www.w3.org/2000/svg" xmlns:xlink="http://www.w3.org/1999/xlink" x="0px" y="0px"
	 viewBox="0 0 256 86" style="enable-background:new 0 0 256 86;" xml:space="preserve">
<style type="text/css">
	.st0{fill:#8F7B72;}
	.st1{fill:#7F6B5D;}
	.st2{fill:#6A5144;}
	.st3{fill:#5C4031;}
	.st4{fill:#4C342D;}
	.st5{fill:#3C2516;}
	.st6{fill:#2B180A;}
	.st7{fill:#0F0204;}
	.st8{fill:#B08F7D;}
	.st9{fill:#9E7E65;}
	.st10{fill:#907045;}
	.st11{fill:#765E37;}
	.st12{fill:#704F20;}
	.st13{fill:#653F1B;}
	.st14{fill:#4F2F11;}
	.st15{fill:#3F2202;}
	.st16{fill:#D18D55;}
	.st17{fill:#C47E44;}
	.st18{fill:#AC703F;}
	.st19{fill:#9D6434;}
	.st20{fill:#89582D;}
	.st21{fill:#7D4A25;}
	.st22{fill:#6A3C1E;}
	.st23{fill:#563019;}
</style>
<rect x="12.86" y="0.12" class="st0" width="28.77" height="28.77"/>
<rect x="41.63" y="0.12" class="st1" width="28.77" height="28.77"/>
<rect x="70.4" y="0.12" class="st2" width="28.77" height="28.77"/>
<rect x="99.17" y="0.12" class="st3" width="28.77" height="28.77"/>
<rect x="127.93" y="0.12" class="st4" width="28.77" height="28.77"/>
<rect x="156.7" y="0.12" class="st5" width="28.77" height="28.77"/>
<rect x="185.47" y="0.12" class="st6" width="28.77" height="28.77"/>
<rect x="214.23" y="0.12" class="st7" width="28.77" height="28.77"/>
<rect x="12.86" y="28.89" class="st8" width="28.77" height="28.77"/>
<rect x="41.63" y="28.89" class="st9" width="28.77" height="28.77"/>
<rect x="70.4" y="28.89" class="st10" width="28.77" height="28.77"/>
<rect x="99.17" y="28.89" class="st11" width="28.77" height="28.77"/>
<rect x="127.93" y="28.89" class="st12" width="28.77" height="28.77"/>
<rect x="156.7" y="28.89" class="st13" width="28.77" height="28.77"/>
<rect x="185.47" y="28.89" class="st14" width="28.77" height="28.77"/>
<rect x="214.23" y="28.89" class="st15" width="28.77" height="28.77"/>
<rect x="12.86" y="57.65" class="st16" width="28.77" height="28.77"/>
<rect x="41.63" y="57.65" class="st17" width="28.77" height="28.77"/>
<rect x="70.4" y="57.65" class="st18" width="28.77" height="28.77"/>
<rect x="99.17" y="57.65" class="st19" width="28.77" height="28.77"/>
<rect x="127.93" y="57.65" class="st20" width="28.77" height="28.77"/>
<rect x="156.7" y="57.65" class="st21" width="28.77" height="28.77"/>
<rect x="185.47" y="57.65" class="st22" width="28.77" height="28.77"/>
<rect x="214.23" y="57.65" class="st23" width="28.77" height="28.77"/>
</svg>
