<?xml version="1.0" encoding="utf-8"?>
<!-- Generator: Adobe Illustrator 26.1.0, SVG Export Plug-In . SVG Version: 6.00 Build 0)  -->
<svg version="1.1" id="Layer_1" xmlns="http://www.w3.org/2000/svg" xmlns:xlink="http://www.w3.org/1999/xlink" x="0px" y="0px"
	 viewBox="0 0 800 800" style="enable-background:new 0 0 800 800;" xml:space="preserve">
<style type="text/css">
	.st0{clip-path:url(#SVGID_00000065051011632381670960000004026326359363481745_);}
	.st1{fill:#BFC7D4;}
	.st2{fill:#E3E7F4;}
	.st3{fill:#8B97A9;}
	.st4{fill:#F2F5FB;}
	.st5{fill:#29313C;}
	.st6{fill:#3E506A;}
</style>
<g>
	<g>
		<defs>
			<path id="SVGID_1_" d="M84.2,613.2C68.7,604.3,59,587.8,59,569.9l-1.5-336.7c-0.1-17.9,9.4-34.5,24.9-43.6L373.2,19.9
				c15.5-9,34.6-9.1,50.2-0.2l292.4,167.1c15.6,8.9,25.2,25.4,25.3,43.3l1.5,336.7c0.1,17.9-9.4,34.5-24.9,43.6L426.8,780.1
				c-15.5,9-34.6,9.1-50.2,0.2L84.2,613.2z"/>
		</defs>
		<clipPath id="SVGID_00000173159472703870997420000004892487991044716730_">
			<use xlink:href="#SVGID_1_"  style="overflow:visible;"/>
		</clipPath>
		<g style="clip-path:url(#SVGID_00000173159472703870997420000004892487991044716730_);">
			<g>
				<g>
					<polygon class="st1" points="742.7,595.8 740.9,201.2 398.3,5.3 400,400 					"/>
				</g>
				<g>
					<polygon class="st2" points="59.1,598.8 400,400 398.3,5.3 57.3,204.2 					"/>
				</g>
				<g>
					<polygon class="st3" points="401.7,794.7 742.7,595.8 400,400 59.1,598.8 					"/>
				</g>
			</g>
			<g>
				<path class="st4" d="M237.2,491.4c26.6-16.1,53.6-31.7,80.3-47.5l47.2-27.8c19.4-11.4,31.4-32.2,31.5-54.7l2.1-325.3l4.9,325.2
					c0.3,22.5,12.5,43.2,32,54.5l48.8,28.1c27.4,15.9,54.9,31.4,82.1,47.5l81.8,48l81.4,48.7l-83.3-45.4l-82.9-46.1
					c-27.7-15.3-55.1-31.1-82.6-46.6l-48.7-27.6c-19.7-11.2-43.9-11.1-63.6,0.3l-47.1,27.2c-27,15.5-53.8,31.3-80.9,46.5
					c-54.1,30.8-108.2,61.5-162.8,91.4C130.4,555.3,183.8,523.3,237.2,491.4z"/>
			</g>
		</g>
	</g>
	<g>
		<g>
			<path class="st5" d="M280,177.6c0.1,19,13.4,26.6,29.8,17.1c16.4-9.6,29.6-32.7,29.5-51.7c-0.1-19-13.4-26.6-29.8-17.1
				C293.1,135.5,279.9,158.7,280,177.6z"/>
			<path class="st6" d="M310.3,195.5c-8.2,4.8-16.1,5.6-22,2.2c-6-3.4-9.3-10.5-9.3-20.1c-0.1-19.3,13.4-42.8,30-52.5
				c8.2-4.8,16.1-5.6,22-2.2c6,3.4,9.3,10.5,9.3,20.1c0,9.6-3.3,20.3-8.7,29.8C326.2,182.4,318.7,190.7,310.3,195.5z M281,177.6
				L281,177.6c0,8.8,3,15.3,8.3,18.4c5.3,3,12.4,2.3,20.1-2.2c16.1-9.4,29.1-32.2,29-50.8c0-8.8-3-15.3-8.3-18.4s-12.4-2.3-20.1,2.2
				c-8.1,4.7-15.3,12.7-20.6,21.9C284.2,158,280.9,168.3,281,177.6z"/>
		</g>
		<g>
			<path class="st5" d="M118,461.1c0.1,19,13.4,26.6,29.8,17.1c16.4-9.6,29.6-32.7,29.5-51.7c-0.1-19-13.4-26.6-29.8-17.1
				C131.1,419,117.9,442.2,118,461.1z"/>
			<path class="st6" d="M148.3,479c-8.2,4.8-16.1,5.6-22,2.2c-6-3.4-9.3-10.5-9.3-20.1c-0.1-19.3,13.4-42.8,30-52.5
				c8.2-4.8,16.1-5.6,22-2.2c6,3.4,9.3,10.5,9.3,20.1c0,9.6-3.3,20.3-8.7,29.8C164.2,465.9,156.6,474.2,148.3,479z M119,461.1
				c0,8.8,3,15.3,8.3,18.4c5.3,3,12.4,2.3,20.1-2.2c16.1-9.4,29.1-32.2,29-50.8c0-8.8-3-15.3-8.3-18.4c-5.3-3-12.4-2.3-20.1,2.2
				c-8.1,4.7-15.3,12.7-20.6,21.9C122.2,441.5,118.9,451.8,119,461.1z"/>
		</g>
	</g>
	<g>
		<g>
			<path class="st5" d="M488.4,193.9c16.5,9.4,29.8,1.7,29.7-17.3c-0.1-19-13.5-42-30-51.4c-16.5-9.4-29.8-1.7-29.7,17.3
				C458.5,161.5,471.9,184.5,488.4,193.9z"/>
			<path class="st6" d="M509.9,196.8c-5.9,3.5-13.7,2.7-22-2c-16.7-9.6-30.4-33-30.5-52.3c0-9.5,3.2-16.7,9.1-20.2
				c5.9-3.5,13.7-2.7,22,2c16.7,9.6,30.4,33,30.5,52.3c0,5.6-1.1,10.4-3.2,14.1C514.4,193.3,512.4,195.3,509.9,196.8z M459.4,142.5
				c0.1,18.6,13.3,41.3,29.5,50.6c7.7,4.4,14.8,5.1,20.1,2c5.3-3.1,8.2-9.6,8.1-18.5c-0.1-18.6-13.3-41.3-29.5-50.6
				c-7.7-4.4-14.8-5.1-20.1-2c-2.1,1.3-3.9,3.1-5.2,5.4C460.3,132.8,459.3,137.3,459.4,142.5z"/>
		</g>
		<g>
			<path class="st5" d="M570.6,334.9c16.5,9.4,29.8,1.7,29.7-17.3c-0.1-19-13.5-42-30-51.4c-16.5-9.4-29.8-1.7-29.7,17.3
				C540.7,302.5,554.1,325.5,570.6,334.9z"/>
			<path class="st6" d="M592.2,337.8c-5.9,3.5-13.8,2.7-22-2c-16.7-9.6-30.4-33-30.5-52.3c0-9.5,3.2-16.7,9.1-20.2
				c5.9-3.5,13.8-2.7,22,2c16.7,9.6,30.4,33,30.5,52.3c0,5.6-1.1,10.4-3.2,14.1C596.6,334.3,594.6,336.4,592.2,337.8z M541.6,283.5
				c0.1,18.6,13.3,41.3,29.5,50.6c7.7,4.4,14.8,5.1,20.1,2c5.3-3.1,8.2-9.6,8.1-18.5c-0.1-18.6-13.3-41.3-29.5-50.6
				c-7.7-4.4-14.8-5.1-20.1-2c-2.1,1.3-3.9,3.1-5.2,5.4C542.6,273.8,541.6,278.3,541.6,283.5z"/>
		</g>
		<g>
			<path class="st5" d="M652.9,476c16.5,9.4,29.8,1.7,29.7-17.3c-0.1-19-13.5-42-30-51.4c-16.5-9.4-29.8-1.7-29.7,17.3
				C623,443.5,636.4,466.6,652.9,476z"/>
			<path class="st6" d="M674.4,478.8c-5.9,3.5-13.8,2.7-22-2c-16.7-9.6-30.4-33-30.5-52.3c0-9.5,3.2-16.7,9.1-20.2
				c5.9-3.5,13.7-2.8,22,2c16.7,9.6,30.4,33,30.5,52.3c0,5.6-1.1,10.4-3.2,14.1C678.9,475.3,676.9,477.4,674.4,478.8z M623.9,424.6
				c0.1,18.6,13.3,41.3,29.5,50.6c7.7,4.4,14.8,5.1,20.1,2c5.3-3.1,8.2-9.6,8.1-18.5c-0.1-18.6-13.3-41.3-29.5-50.6
				c-7.7-4.4-14.8-5.1-20.1-2c-2.1,1.3-3.9,3.1-5.2,5.4C624.9,414.9,623.8,419.3,623.9,424.6z"/>
		</g>
	</g>
	<g>
		<g>
			<path class="st5" d="M371.2,614.6c16.5,9.4,43.1,9.3,59.5-0.3c16.4-9.6,16.3-24.9-0.2-34.4c-16.5-9.4-43.1-9.3-59.5,0.3
				C354.6,589.8,354.7,605.2,371.2,614.6z"/>
			<path class="st6" d="M431.2,615.2c-16.6,9.7-43.8,9.8-60.5,0.3c-8.3-4.7-12.9-11.1-12.9-18c0-6.8,4.5-13.3,12.7-18.1
				c16.6-9.7,43.8-9.8,60.5-0.3c8.3,4.7,12.9,11.1,12.9,18c0,2.8-0.8,5.6-2.2,8.2C439.6,609,436,612.4,431.2,615.2z M359.8,597.5
				c0,6.1,4.3,11.9,11.9,16.3c16.2,9.2,42.4,9.1,58.5-0.3c7.6-4.4,11.8-10.3,11.8-16.4c0-6.1-4.3-11.9-11.9-16.3
				c-16.2-9.2-42.4-9.1-58.5,0.3c-4.5,2.6-7.8,5.8-9.8,9.2C360.4,592.6,359.7,595,359.8,597.5z"/>
		</g>
	</g>
</g>
</svg>
