<?xml version="1.0" encoding="utf-8"?>
<!-- Generator: Adobe Illustrator 25.4.1, SVG Export Plug-In . SVG Version: 6.00 Build 0)  -->
<svg version="1.1" id="Layer_1" xmlns="http://www.w3.org/2000/svg" xmlns:xlink="http://www.w3.org/1999/xlink" x="0px" y="0px"
	 viewBox="0 0 1000 1000" style="enable-background:new 0 0 1000 1000;" xml:space="preserve">
<style type="text/css">
	.st0{display:none;}
	.st1{display:inline;fill:#111522;}
	.st2{fill:#F0EFEF;}
</style>
<g id="Layer_1_00000083080812535220878830000017179706310777735069_" class="st0">
	<rect class="st1" width="1000" height="1000"/>
</g>
<g id="Layer_2_00000060718447997855264540000004845839155297883055_">
	<g>
		<circle class="st2" cx="504" cy="401.4" r="23.3"/>
		
			<ellipse transform="matrix(0.6403 -0.7681 0.7681 0.6403 -80.0381 631.0712)" class="st2" cx="633.8" cy="401" rx="23.3" ry="23.3"/>
		<path class="st2" d="M864.5,295.5l49.7-26c-35-62.8-84.7-117.7-144.2-159c-78.8-54.7-171.3-83.9-267.6-84.4c-1.3,0-2.6,0-4,0
			c-125,0.4-242.9,49.1-331.8,137.2C76.7,252.3,26.8,371.1,26.2,497.7c-0.6,126.6,48.1,245.8,137.1,335.8
			c89.1,89.9,207.8,139.8,334.4,140.4c1.3,0,2.6,0,3.9,0c94.9-0.3,186.3-28.6,264.5-81.7c62.1-42.2,113.6-98.9,149.5-164.3
			l-49.8-25.6c-34.7,62.7-85.2,115.7-146.3,153.5l0,0c-66.4,41.1-143,62.6-221.5,62.2c-111.6-0.5-216.4-44.5-294.9-123.9
			c-78.5-79.3-121.5-184.5-121-296.1C82.7,386.3,126.7,281.6,206,203c78.5-77.7,182.4-120.6,292.9-120.9c1.1,0,2.2,0,3.3,0
			c78.5,0.4,154.9,22.7,220.9,64.4C781.7,183.5,830.5,235,864.5,295.5z"/>
		<path class="st2" d="M380.8,698c-35.1-21.4-63.9-51.8-83.4-87.9l-4-7.3l-51.2,26.8l4,7.5c22.3,41.4,54.8,77.3,94.1,103.6
			c48,32.2,104,49.1,162,48.9l2.4,0c77.4-0.9,149.8-31.8,203.9-87.2c54.1-55.3,83.4-128.4,82.5-205.8S759.3,346.9,704,292.9
			c-54.7-53.5-126.9-82.8-203.4-82.5l-2.4,0c-58.9,0.7-115.3,18.9-163.3,52.6c-37.4,26.3-68.3,61.4-89.6,101.6l-4,7.5l51.4,26.4
			l3.9-7.3c18.7-35.1,46.3-65.1,79.8-86.6c36.5-23.4,78.8-36,122.3-36.5c0.6,0,1.2,0,1.8,0c61.3-0.2,119.1,23.2,162.9,66.1
			c44.3,43.3,69.1,101.2,69.8,163.2s-22.8,120.4-66.1,164.7c-28.3,28.9-62.8,49.5-100.6,60.5C349,485.5,697.1,537.9,697.1,537.9
			S419.3,439.2,380.8,698z"/>
	</g>
</g>
</svg>
