<?xml version="1.0" encoding="utf-8"?>
<!-- Generator: Adobe Illustrator 26.1.0, SVG Export Plug-In . SVG Version: 6.00 Build 0)  -->
<svg version="1.1" id="Layer_1" xmlns="http://www.w3.org/2000/svg" xmlns:xlink="http://www.w3.org/1999/xlink" x="0px" y="0px"
	 viewBox="0 0 800 800" style="enable-background:new 0 0 800 800;" xml:space="preserve">
<style type="text/css">
	.st0{fill:#FFFFFF;}
</style>
<g>
	<g>
		<polygon class="st0" points="738.4,636.7 738.4,728.1 646.7,728.1 646.7,737.5 747.7,737.5 747.7,636.7 738.4,636.7 		"/>
		<polygon class="st0" points="76.4,160.5 76.4,67.5 171.6,67.5 171.6,58.2 67.1,58.2 67.1,160.5 76.4,160.5 		"/>
	</g>
	<g>
		
			<rect x="333.7" y="108.4" transform="matrix(0.7132 -0.7009 0.7009 0.7132 -162.7196 400.348)" class="st0" width="148.5" height="581.3"/>
		
			<rect x="333.7" y="108.4" transform="matrix(0.7132 0.7009 -0.7009 0.7132 396.6711 -171.4883)" class="st0" width="148.5" height="581.3"/>
	</g>
	<g>
		
			<image style="overflow:visible;" width="314" height="226" xlink:href="D5A9A1CFEF8F8732.png"  transform="matrix(2.7511 0 0 2.7511 -32.0221 89.2666)">
		</image>
		<g>
			<g>
				<polygon class="st0" points="116.9,347.1 116.9,248.1 101.3,248.1 101.3,322.2 31.2,248.1 16.9,248.1 16.9,347.1 30.5,347.1 
					30.5,270.7 100.2,347.1 				"/>
			</g>
			<g>
				<path class="st0" d="M158.5,347.1h38.8c17.6,0,31.9-14.3,31.9-31.9V280c0-17.6-14.3-31.9-31.9-31.9h-38.8
					c-17.6,0-31.9,14.3-31.9,31.9v35.2C126.6,332.8,140.8,347.1,158.5,347.1z M141.9,277.5c0-9,7.3-16.3,16.3-16.3h40.4
					c9,0,16.3,7.3,16.3,16.3v40.4c0,9-7.3,16.3-16.3,16.3h-40.4c-9,0-16.3-7.3-16.3-16.3V277.5z"/>
			</g>
			<g>
				<path class="st0" d="M687.1,447.7h-38.8c-17.6,0-31.9,14.3-31.9,31.9v35.2c0,17.6,14.3,31.9,31.9,31.9h38.8
					c17.6,0,31.9-14.3,31.9-31.9v-35.2C718.9,462,704.7,447.7,687.1,447.7z M704.7,517.5c0,9-7.3,16.3-16.3,16.3H648
					c-9,0-16.3-7.3-16.3-16.3v-40.4c0-9,7.3-16.3,16.3-16.3h40.4c9,0,16.3,7.3,16.3,16.3V517.5z"/>
			</g>
			<g>
				<polygon class="st0" points="396.3,334.1 313,334.1 313,248.1 296.5,248.1 296.5,347.9 396.3,347.9 				"/>
			</g>
			<g>
				<rect x="403.2" y="248.1" class="st0" width="15.5" height="99.8"/>
			</g>
			<g>
				<rect x="559.2" y="248.1" class="st0" width="15.5" height="99.8"/>
			</g>
			<g>
				<polygon class="st0" points="623.3,347.9 638.8,347.9 638.8,261.8 680.7,261.8 680.7,248.1 638.8,248.1 623.3,248.1 
					581.4,248.1 581.4,261.8 623.3,261.8 				"/>
			</g>
			<g>
				<polygon class="st0" points="446.6,273.3 489.1,334.1 531.4,273.3 531.4,347.1 546.3,347.1 546.3,248.1 530.7,248.1 
					489.1,308.3 446.4,248.1 432,248.1 432,347.1 446.6,347.1 				"/>
			</g>
			<g>
				<path class="st0" d="M784.4,275.9v-3.7c0-6.4-2.6-12.3-6.8-16.5c-4.2-4.2-10.1-6.8-16.5-6.8h-50.2c-6.4,0-12.3,2.6-16.5,6.8
					c-4.2,4.2-6.8,10.1-6.8,16.5v7.3c0,6.4,2.6,12.3,6.8,16.5c4.2,4.2,10.1,6.8,16.5,6.8h13.7h18.9h15c3.1,0,5.9,1.3,8,3.3
					c2.1,2.1,3.3,4.9,3.3,8v8.7c0,3.1-1.3,5.9-3.3,8c-2.1,2.1-4.9,3.3-8,3.3h-47.5c-3.2,0-5.9-1.3-8-3.3c-2.1-2.1-3.3-4.9-3.3-8
					v-4.4h-12l0,4.4c0,6.4,2.6,12.3,6.8,16.5c4.2,4.2,10.1,6.8,16.5,6.8h47.5c6.4,0,12.3-2.6,16.5-6.8c4.2-4.2,6.8-10.1,6.8-16.5
					v-8.7c0-6.4-2.6-12.3-6.8-16.5c-4.2-4.2-10.1-6.8-16.5-6.8h-15h-18.9h-13.7c-3.1,0-5.9-1.3-8-3.3c-2.1-2.1-3.3-4.9-3.3-8v-7.3
					c0-3.1,1.3-5.9,3.3-8c2.1-2.1,4.9-3.3,8-3.3h50.2c3.1,0,5.9,1.3,8,3.3c2.1,2.1,3.3,4.9,3.3,8v3.7H784.4z"/>
			</g>
			<g>
				<path class="st0" d="M152.5,532.2h-40.4c-9,0-16.3-7.3-16.3-16.3v-40.4c0-9,7.3-16.3,16.3-16.3h40.4c8.2,0,15,6.1,16.1,14.1h14
					c-2.3-15.4-15.5-27.2-31.5-27.2h-38.8c-17.6,0-31.9,14.3-31.9,31.9v35.2c0,17.6,14.3,31.9,31.9,31.9h38.8
					c16.2,0,29.5-12,31.6-27.6h-14C167.9,525.8,161,532.2,152.5,532.2z"/>
			</g>
			<g>
				<path class="st0" d="M263.6,446.2h-55.8h-14.7v72.1v29.9h14.7v-29.9h45.9l28.6,28.4h10v-10.8l-19.5-19.1
					c11.9-3.9,20.4-15,20.4-28.2v-12.9C293.3,459.4,280,446.2,263.6,446.2z M279.7,487.3c0,8.6-7,15.6-15.6,15.6h-56.3v-42.5h56.3
					c8.6,0,15.6,7,15.6,15.6V487.3z"/>
			</g>
			<g>
				<path class="st0" d="M481.5,446.2h-55.8H411v72.1v29.9h14.7v-29.9h55.8c16.4,0,29.6-13.3,29.6-29.6v-12.9
					C511.2,459.4,497.9,446.2,481.5,446.2z M497.6,487.3c0,8.6-7,15.6-15.6,15.6h-56.3v-42.5H482c8.6,0,15.6,7,15.6,15.6V487.3z"/>
			</g>
			<g>
				<polygon class="st0" points="388.7,459.9 350.5,501.9 312.9,462.1 312.9,447 300.9,447 300.9,447 300.9,466.8 344.6,513.1 
					344.6,546.7 356.6,546.7 356.6,513.1 400.7,464.5 400.7,447 388.7,447 				"/>
			</g>
			<g>
				<polygon class="st0" points="513.2,460.3 556.2,460.3 556.2,546.7 571.1,546.7 571.1,460.3 613.4,460.3 613.4,446.2 
					513.2,446.2 				"/>
			</g>
		</g>
	</g>
</g>
</svg>
