<svg width="22" height="18" viewBox="0 0 22 18" fill="none" xmlns="http://www.w3.org/2000/svg">
<path d="M14.8324 18H6.83244C6.56723 18 6.31287 17.8946 6.12534 17.7071C5.9378 17.5196 5.83244 17.2652 5.83244 17V9.07L4.53244 10.07C4.43993 10.1627 4.33004 10.2363 4.20907 10.2864C4.08809 10.3366 3.95841 10.3624 3.82744 10.3624C3.69648 10.3624 3.56679 10.3366 3.44582 10.2864C3.32485 10.2363 3.21496 10.1627 3.12244 10.07L0.292444 7.29C0.199741 7.19749 0.126193 7.0876 0.0760115 6.96662C0.0258301 6.84565 0 6.71597 0 6.585C0 6.45403 0.0258301 6.32435 0.0760115 6.20338C0.126193 6.0824 0.199741 5.97251 0.292444 5.88L6.17244 0H7.83244C7.83244 1.1 9.17244 2 10.8324 2C12.4924 2 13.8324 1.1 13.8324 0H15.4924L21.3724 5.88C21.7624 6.27 21.7624 6.9 21.3724 7.29L18.5424 10.12C18.1524 10.5 17.5224 10.5 17.1324 10.12L15.8324 9.12V17C15.8324 17.2652 15.7271 17.5196 15.5396 17.7071C15.352 17.8946 15.0977 18 14.8324 18Z" fill="white"/>
</svg>
