<svg width="756" height="194" viewBox="0 0 756 194" fill="none" xmlns="http://www.w3.org/2000/svg">
<path d="M74.3731 45L749.5 45V146H0L74.3731 45Z" fill="#060606"/>
<path d="M139.625 97.1C139.625 99.7833 139.2 102.225 138.35 104.425C137.5 106.625 136.3 108.508 134.75 110.075C133.2 111.642 131.333 112.858 129.15 113.725C126.983 114.575 124.583 115 121.95 115H108.575V79.175H121.95C124.583 79.175 126.983 79.6083 129.15 80.475C131.333 81.325 133.2 82.5417 134.75 84.125C136.3 85.6917 137.5 87.575 138.35 89.775C139.2 91.975 139.625 94.4167 139.625 97.1ZM134.65 97.1C134.65 94.9 134.35 92.9333 133.75 91.2C133.15 89.4667 132.3 88 131.2 86.8C130.1 85.6 128.767 84.6833 127.2 84.05C125.633 83.4167 123.883 83.1 121.95 83.1H113.425V111.075H121.95C123.883 111.075 125.633 110.758 127.2 110.125C128.767 109.492 130.1 108.583 131.2 107.4C132.3 106.2 133.15 104.733 133.75 103C134.35 101.267 134.65 99.3 134.65 97.1ZM156.537 96.525C157.937 96.525 159.17 96.3583 160.237 96.025C161.32 95.675 162.22 95.1917 162.937 94.575C163.67 93.9417 164.22 93.1917 164.587 92.325C164.954 91.4583 165.137 90.5 165.137 89.45C165.137 87.3167 164.437 85.7083 163.037 84.625C161.637 83.5417 159.537 83 156.737 83H151.437V96.525H156.537ZM173.087 115H168.787C167.904 115 167.254 114.658 166.837 113.975L157.537 101.175C157.254 100.775 156.945 100.492 156.612 100.325C156.295 100.142 155.795 100.05 155.112 100.05H151.437V115H146.612V79.175H156.737C159.004 79.175 160.962 79.4083 162.612 79.875C164.262 80.325 165.62 80.9833 166.687 81.85C167.77 82.7167 168.57 83.7667 169.087 85C169.604 86.2167 169.862 87.5833 169.862 89.1C169.862 90.3667 169.662 91.55 169.262 92.65C168.862 93.75 168.279 94.7417 167.512 95.625C166.762 96.4917 165.837 97.2333 164.737 97.85C163.654 98.4667 162.42 98.9333 161.037 99.25C161.654 99.6 162.187 100.108 162.637 100.775L173.087 115ZM210.718 97.1C210.718 99.7833 210.293 102.25 209.443 104.5C208.593 106.733 207.393 108.658 205.843 110.275C204.293 111.892 202.426 113.15 200.243 114.05C198.076 114.933 195.676 115.375 193.043 115.375C190.41 115.375 188.01 114.933 185.843 114.05C183.676 113.15 181.818 111.892 180.268 110.275C178.718 108.658 177.518 106.733 176.668 104.5C175.818 102.25 175.393 99.7833 175.393 97.1C175.393 94.4167 175.818 91.9583 176.668 89.725C177.518 87.475 178.718 85.5417 180.268 83.925C181.818 82.2917 183.676 81.025 185.843 80.125C188.01 79.225 190.41 78.775 193.043 78.775C195.676 78.775 198.076 79.225 200.243 80.125C202.426 81.025 204.293 82.2917 205.843 83.925C207.393 85.5417 208.593 87.475 209.443 89.725C210.293 91.9583 210.718 94.4167 210.718 97.1ZM205.743 97.1C205.743 94.9 205.443 92.925 204.843 91.175C204.243 89.425 203.393 87.95 202.293 86.75C201.193 85.5333 199.86 84.6 198.293 83.95C196.726 83.3 194.976 82.975 193.043 82.975C191.126 82.975 189.385 83.3 187.818 83.95C186.251 84.6 184.91 85.5333 183.793 86.75C182.693 87.95 181.843 89.425 181.243 91.175C180.643 92.925 180.343 94.9 180.343 97.1C180.343 99.3 180.643 101.275 181.243 103.025C181.843 104.758 182.693 106.233 183.793 107.45C184.91 108.65 186.251 109.575 187.818 110.225C189.385 110.858 191.126 111.175 193.043 111.175C194.976 111.175 196.726 110.858 198.293 110.225C199.86 109.575 201.193 108.65 202.293 107.45C203.393 106.233 204.243 104.758 204.843 103.025C205.443 101.275 205.743 99.3 205.743 97.1ZM228.232 97.75C229.615 97.75 230.832 97.5667 231.882 97.2C232.949 96.8333 233.84 96.325 234.557 95.675C235.29 95.0083 235.84 94.2167 236.207 93.3C236.574 92.3833 236.757 91.375 236.757 90.275C236.757 87.9917 236.049 86.2083 234.632 84.925C233.232 83.6417 231.099 83 228.232 83H222.482V97.75H228.232ZM228.232 79.175C230.499 79.175 232.465 79.4417 234.132 79.975C235.815 80.4917 237.207 81.2333 238.307 82.2C239.407 83.1667 240.224 84.3333 240.757 85.7C241.307 87.0667 241.582 88.5917 241.582 90.275C241.582 91.9417 241.29 93.4667 240.707 94.85C240.124 96.2333 239.265 97.425 238.132 98.425C237.015 99.425 235.624 100.208 233.957 100.775C232.307 101.325 230.399 101.6 228.232 101.6H222.482V115H217.657V79.175H228.232ZM288.137 79.175V115H283.287V98.7H263.962V115H259.112V79.175H263.962V95.15H283.287V79.175H288.137ZM311.121 111.15C312.604 111.15 313.929 110.9 315.096 110.4C316.262 109.9 317.246 109.2 318.046 108.3C318.862 107.4 319.479 106.325 319.896 105.075C320.329 103.825 320.546 102.45 320.546 100.95V79.175H325.371V100.95C325.371 103.017 325.037 104.933 324.371 106.7C323.721 108.467 322.779 110 321.546 111.3C320.329 112.583 318.837 113.592 317.071 114.325C315.304 115.058 313.321 115.425 311.121 115.425C308.921 115.425 306.937 115.058 305.171 114.325C303.404 113.592 301.904 112.583 300.671 111.3C299.437 110 298.487 108.467 297.821 106.7C297.171 104.933 296.846 103.017 296.846 100.95V79.175H301.671V100.925C301.671 102.425 301.879 103.8 302.296 105.05C302.729 106.3 303.346 107.375 304.146 108.275C304.962 109.175 305.954 109.883 307.121 110.4C308.304 110.9 309.637 111.15 311.121 111.15ZM363.088 79.175V115H360.663C360.28 115 359.955 114.933 359.688 114.8C359.438 114.667 359.188 114.442 358.938 114.125L338.213 87.125C338.247 87.5417 338.272 87.95 338.288 88.35C338.305 88.75 338.313 89.125 338.313 89.475V115H334.063V79.175H336.563C336.78 79.175 336.963 79.1917 337.113 79.225C337.263 79.2417 337.397 79.2833 337.513 79.35C337.63 79.4 337.747 79.4833 337.863 79.6C337.98 79.7 338.105 79.8333 338.238 80L358.963 106.975C358.93 106.542 358.897 106.125 358.863 105.725C358.847 105.308 358.838 104.917 358.838 104.55V79.175H363.088ZM396.472 83.25H384.872V115H380.047V83.25H368.422V79.175H396.472V83.25ZM423.888 111.05L423.863 115H401.788V79.175H423.863V83.125H406.638V95.025H420.588V98.825H406.638V111.05H423.888ZM440.57 96.525C441.97 96.525 443.204 96.3583 444.27 96.025C445.354 95.675 446.254 95.1917 446.97 94.575C447.704 93.9417 448.254 93.1917 448.62 92.325C448.987 91.4583 449.17 90.5 449.17 89.45C449.17 87.3167 448.47 85.7083 447.07 84.625C445.67 83.5417 443.57 83 440.77 83H435.47V96.525H440.57ZM457.12 115H452.82C451.937 115 451.287 114.658 450.87 113.975L441.57 101.175C441.287 100.775 440.979 100.492 440.645 100.325C440.329 100.142 439.829 100.05 439.145 100.05H435.47V115H430.645V79.175H440.77C443.037 79.175 444.995 79.4083 446.645 79.875C448.295 80.325 449.654 80.9833 450.72 81.85C451.804 82.7167 452.604 83.7667 453.12 85C453.637 86.2167 453.895 87.5833 453.895 89.1C453.895 90.3667 453.695 91.55 453.295 92.65C452.895 93.75 452.312 94.7417 451.545 95.625C450.795 96.4917 449.87 97.2333 448.77 97.85C447.687 98.4667 446.454 98.9333 445.07 99.25C445.687 99.6 446.22 100.108 446.67 100.775L457.12 115Z" fill="white"/>
<path d="M590.411 0L756 0V194H461L590.411 0Z" fill="url(#paint0_radial_878_433)"/>
<path fill-rule="evenodd" clip-rule="evenodd" d="M676.875 97.8689L678.356 103.498L656.731 131.048L640.734 129.567L627.995 118.902C627.995 118.902 624.907 101.268 625.033 101.128C625.159 100.987 646.066 80.3907 646.066 80.3907H651.991L688.428 39.806L718.645 46.323L676.875 97.8689ZM659.101 95.499L646.658 94.0178L638.66 102.609L640.717 111.61L645.857 115.771L655.249 116.532L662.359 106.756L659.101 95.499ZM627.403 125.716L631.55 129.27L633.624 131.64L616.738 154.451L604 144.675L625.625 124.234L627.403 125.716Z" fill="white"/>
<path fill-rule="evenodd" clip-rule="evenodd" d="M661.261 55.6463L617.033 54.914L617.726 121.831L610.083 128.787L608.146 46.3233L668.313 46.9878L661.261 55.6463ZM639.729 139.734L700.87 136.676L704.808 80.5027L714.564 68.2769L711.498 145.823L633.078 148.124L639.729 139.734Z" fill="#80998F"/>
<defs>
<radialGradient id="paint0_radial_878_433" cx="0" cy="0" r="1" gradientUnits="userSpaceOnUse" gradientTransform="translate(643 97) rotate(90) scale(97 192)">
<stop stop-color="#0008D4"/>
<stop offset="1" stop-color="#0D00A3"/>
</radialGradient>
</defs>
</svg>
