<svg width="782" height="194" viewBox="0 0 782 194" fill="none" xmlns="http://www.w3.org/2000/svg">
<path d="M3 46H782L707.627 147L1.5 147L3 46Z" fill="#060606"/>
<path d="M165.589 0L0 0V194H295L165.589 0Z" fill="url(#paint0_radial_878_432)"/>
<path fill-rule="evenodd" clip-rule="evenodd" d="M107.647 53.5081L52.1467 52.5891L52.7845 114.356L45.0337 119.522L43.2598 43.9984L115.911 44.801L107.647 53.5081ZM76.3176 137.522L135.983 134.352L140.09 75.7721L149.782 67.2178L146.611 143.498L74.1165 145.775L76.3176 137.522Z" fill="#80998F"/>
<path fill-rule="evenodd" clip-rule="evenodd" d="M145.758 52.8854L149.828 56.4957L103.691 88.7306L95.9892 79.8434L141.314 36L152.867 46.6644L145.758 52.8854ZM87.102 106.505L76.3307 96.0892L91.8419 81.0283L103.099 93.1742L87.102 106.505ZM78.511 118.651L78.8073 125.464L72.29 127.834L64.8839 153.608L46.2208 147.683L40 136.129L61.9215 117.762L68.4388 115.985L71.105 113.911L74.0674 99.6915L83.5471 109.467L78.511 118.651ZM98.3592 106.209L100.433 111.541L89.6592 108.028L98.0629 101.765L98.3592 106.209Z" fill="white"/>
<path d="M301.84 78.175V114H299.415C299.032 114 298.707 113.933 298.44 113.8C298.19 113.667 297.94 113.442 297.69 113.125L276.965 86.125C276.999 86.5417 277.024 86.95 277.04 87.35C277.057 87.75 277.065 88.125 277.065 88.475V114H272.815V78.175H275.315C275.532 78.175 275.715 78.1917 275.865 78.225C276.015 78.2417 276.149 78.2833 276.265 78.35C276.382 78.4 276.499 78.4833 276.615 78.6C276.732 78.7 276.857 78.8333 276.99 79L297.715 105.975C297.682 105.542 297.649 105.125 297.615 104.725C297.599 104.308 297.59 103.917 297.59 103.55V78.175H301.84ZM333.099 110.05L333.074 114H310.999V78.175H333.074V82.125H315.849V94.025H329.799V97.825H315.849V110.05H333.099ZM353.681 110.15C355.165 110.15 356.49 109.9 357.656 109.4C358.823 108.9 359.806 108.2 360.606 107.3C361.423 106.4 362.04 105.325 362.456 104.075C362.89 102.825 363.106 101.45 363.106 99.95V78.175H367.931V99.95C367.931 102.017 367.598 103.933 366.931 105.7C366.281 107.467 365.34 109 364.106 110.3C362.89 111.583 361.398 112.592 359.631 113.325C357.865 114.058 355.881 114.425 353.681 114.425C351.481 114.425 349.498 114.058 347.731 113.325C345.965 112.592 344.465 111.583 343.231 110.3C341.998 109 341.048 107.467 340.381 105.7C339.731 103.933 339.406 102.017 339.406 99.95V78.175H344.231V99.925C344.231 101.425 344.44 102.8 344.856 104.05C345.29 105.3 345.906 106.375 346.706 107.275C347.523 108.175 348.515 108.883 349.681 109.4C350.865 109.9 352.198 110.15 353.681 110.15ZM386.549 95.525C387.949 95.525 389.182 95.3583 390.249 95.025C391.332 94.675 392.232 94.1917 392.949 93.575C393.682 92.9417 394.232 92.1917 394.599 91.325C394.965 90.4583 395.149 89.5 395.149 88.45C395.149 86.3167 394.449 84.7083 393.049 83.625C391.649 82.5417 389.549 82 386.749 82H381.449V95.525H386.549ZM403.099 114H398.799C397.915 114 397.265 113.658 396.849 112.975L387.549 100.175C387.265 99.775 386.957 99.4917 386.624 99.325C386.307 99.1417 385.807 99.05 385.124 99.05H381.449V114H376.624V78.175H386.749C389.015 78.175 390.974 78.4083 392.624 78.875C394.274 79.325 395.632 79.9833 396.699 80.85C397.782 81.7167 398.582 82.7667 399.099 84C399.615 85.2167 399.874 86.5833 399.874 88.1C399.874 89.3667 399.674 90.55 399.274 91.65C398.874 92.75 398.29 93.7417 397.524 94.625C396.774 95.4917 395.849 96.2333 394.749 96.85C393.665 97.4667 392.432 97.9333 391.049 98.25C391.665 98.6 392.199 99.1083 392.649 99.775L403.099 114ZM426.996 100.7L421.371 86.125C421.205 85.6917 421.03 85.1917 420.846 84.625C420.663 84.0417 420.488 83.425 420.321 82.775C419.971 84.125 419.613 85.25 419.246 86.15L413.621 100.7H426.996ZM437.096 114H433.346C432.913 114 432.563 113.892 432.296 113.675C432.03 113.458 431.83 113.183 431.696 112.85L428.346 104.2H412.271L408.921 112.85C408.821 113.15 408.63 113.417 408.346 113.65C408.063 113.883 407.713 114 407.296 114H403.546L417.871 78.175H422.771L437.096 114ZM462.134 109.925V114H441.809V78.175H446.634V109.925H462.134ZM507.797 78.175V114H502.947V97.7H483.622V114H478.772V78.175H483.622V94.15H502.947V78.175H507.797ZM535.981 100.7L530.356 86.125C530.189 85.6917 530.014 85.1917 529.831 84.625C529.648 84.0417 529.473 83.425 529.306 82.775C528.956 84.125 528.598 85.25 528.231 86.15L522.606 100.7H535.981ZM546.081 114H542.331C541.898 114 541.548 113.892 541.281 113.675C541.014 113.458 540.814 113.183 540.681 112.85L537.331 104.2H521.256L517.906 112.85C517.806 113.15 517.614 113.417 517.331 113.65C517.048 113.883 516.698 114 516.281 114H512.531L526.856 78.175H531.756L546.081 114ZM575.016 106.6C575.283 106.6 575.516 106.708 575.716 106.925L577.641 109C576.174 110.7 574.391 112.025 572.291 112.975C570.208 113.925 567.683 114.4 564.716 114.4C562.149 114.4 559.816 113.958 557.716 113.075C555.616 112.175 553.824 110.925 552.341 109.325C550.858 107.708 549.708 105.775 548.891 103.525C548.074 101.275 547.666 98.8 547.666 96.1C547.666 93.4 548.091 90.925 548.941 88.675C549.791 86.425 550.983 84.4917 552.516 82.875C554.066 81.2583 555.916 80.0083 558.066 79.125C560.216 78.225 562.591 77.775 565.191 77.775C567.741 77.775 569.991 78.1833 571.941 79C573.891 79.8167 575.608 80.925 577.091 82.325L575.491 84.55C575.391 84.7167 575.258 84.8583 575.091 84.975C574.941 85.075 574.733 85.125 574.466 85.125C574.166 85.125 573.799 84.9667 573.366 84.65C572.933 84.3167 572.366 83.95 571.666 83.55C570.966 83.15 570.091 82.7917 569.041 82.475C567.991 82.1417 566.699 81.975 565.166 81.975C563.316 81.975 561.624 82.3 560.091 82.95C558.558 83.5833 557.233 84.5083 556.116 85.725C555.016 86.9417 554.158 88.425 553.541 90.175C552.924 91.925 552.616 93.9 552.616 96.1C552.616 98.3333 552.933 100.325 553.566 102.075C554.216 103.825 555.091 105.308 556.191 106.525C557.308 107.725 558.616 108.642 560.116 109.275C561.633 109.908 563.266 110.225 565.016 110.225C566.083 110.225 567.041 110.167 567.891 110.05C568.758 109.917 569.549 109.717 570.266 109.45C570.999 109.183 571.674 108.85 572.291 108.45C572.924 108.033 573.549 107.542 574.166 106.975C574.449 106.725 574.733 106.6 575.016 106.6ZM588.089 93.875H589.914C590.548 93.875 591.056 93.8 591.439 93.65C591.823 93.4833 592.173 93.2083 592.489 92.825L604.414 79.325C604.748 78.8917 605.098 78.5917 605.464 78.425C605.831 78.2583 606.281 78.175 606.814 78.175H610.914L597.264 93.6C596.931 94 596.606 94.3333 596.289 94.6C595.989 94.85 595.664 95.0583 595.314 95.225C595.764 95.375 596.173 95.6 596.539 95.9C596.906 96.1833 597.264 96.5583 597.614 97.025L611.864 114H607.664C607.348 114 607.073 113.983 606.839 113.95C606.623 113.9 606.431 113.833 606.264 113.75C606.098 113.65 605.948 113.542 605.814 113.425C605.698 113.292 605.581 113.142 605.464 112.975L593.114 98.75C592.781 98.3333 592.423 98.0417 592.039 97.875C591.656 97.6917 591.073 97.6 590.289 97.6H588.089V114H583.264V78.175H588.089V93.875ZM638.47 110.05L638.445 114H616.37V78.175H638.445V82.125H621.22V94.025H635.17V97.825H621.22V110.05H638.47ZM655.152 95.525C656.552 95.525 657.786 95.3583 658.852 95.025C659.936 94.675 660.836 94.1917 661.552 93.575C662.286 92.9417 662.836 92.1917 663.202 91.325C663.569 90.4583 663.752 89.5 663.752 88.45C663.752 86.3167 663.052 84.7083 661.652 83.625C660.252 82.5417 658.152 82 655.352 82H650.052V95.525H655.152ZM671.702 114H667.402C666.519 114 665.869 113.658 665.452 112.975L656.152 100.175C655.869 99.775 655.561 99.4917 655.227 99.325C654.911 99.1417 654.411 99.05 653.727 99.05H650.052V114H645.227V78.175H655.352C657.619 78.175 659.577 78.4083 661.227 78.875C662.877 79.325 664.236 79.9833 665.302 80.85C666.386 81.7167 667.186 82.7667 667.702 84C668.219 85.2167 668.477 86.5833 668.477 88.1C668.477 89.3667 668.277 90.55 667.877 91.65C667.477 92.75 666.894 93.7417 666.127 94.625C665.377 95.4917 664.452 96.2333 663.352 96.85C662.269 97.4667 661.036 97.9333 659.652 98.25C660.269 98.6 660.802 99.1083 661.252 99.775L671.702 114Z" fill="white"/>
<defs>
<radialGradient id="paint0_radial_878_432" cx="0" cy="0" r="1" gradientUnits="userSpaceOnUse" gradientTransform="translate(113 97) rotate(90) scale(97 192)">
<stop stop-color="#D40000"/>
<stop offset="1" stop-color="#A80000"/>
</radialGradient>
</defs>
</svg>
