<svg width="526" height="523" viewBox="0 0 526 523" fill="none" xmlns="http://www.w3.org/2000/svg">
<circle cx="263" cy="261" r="225" fill="black" stroke="white" stroke-width="8"/>
<path fill-rule="evenodd" clip-rule="evenodd" d="M275 113.365C275.07 113.37 275.14 113.375 275.21 113.38C282.197 116.671 291.212 122.211 300.283 131.411C308.686 139.933 317.388 151.859 324.539 168.53C309.911 165.673 293.471 163.845 275 163.369L275 113.365ZM203.671 125.99C170.666 140.828 144.062 167.37 129.143 200.331C141.395 190.7 157.316 181.861 177.959 175.229C184.736 154.458 193.817 138.387 203.671 125.99ZM116.365 251C116.366 250.986 116.367 250.972 116.368 250.958C119.28 244.123 124.391 235.159 133.29 226.078C141.716 217.478 153.841 208.477 171.292 201.121C168.412 215.837 166.574 232.389 166.108 251L116.365 251ZM129.143 322.669C143.998 355.489 170.438 381.944 203.246 396.818C193.548 384.536 184.642 368.545 177.971 347.774C157.322 341.143 141.397 332.302 129.143 322.669ZM324.962 397.175C358.488 382.212 385.448 355.187 400.328 321.616C387.854 331.647 371.609 340.904 350.516 347.786C343.781 368.752 334.768 384.848 324.962 397.175ZM400.328 201.384C387.857 191.355 371.615 182.099 350.528 175.218C343.687 154.254 334.499 138.079 324.538 125.637C358.26 140.561 385.386 167.672 400.328 201.384ZM116.785 273C119.759 279.703 124.801 288.259 133.29 296.922C141.735 305.541 153.894 314.563 171.406 321.927C168.606 307.484 166.77 291.248 166.189 273L116.785 273ZM253 113.513L253 163.435C234.684 164.006 218.392 165.841 203.903 168.644C211.063 151.913 219.786 139.952 228.208 131.411C237.157 122.334 246.053 116.819 253 113.513ZM262.818 185.254C235.836 185.432 213.75 188.391 195.672 193.013C190.808 211.768 187.813 234.756 187.999 262.927C188.177 289.875 191.129 311.939 195.741 330.004C213.806 334.617 235.87 337.569 262.818 337.746C290.989 337.932 313.977 334.938 332.732 330.073C337.354 311.995 340.314 289.91 340.492 262.927C340.678 234.722 337.675 211.712 332.8 192.945C314.033 188.07 291.023 185.068 262.818 185.254ZM394.335 225.462C385.812 217.06 373.887 208.358 357.215 201.206C360.085 215.901 361.917 232.425 362.383 251L412.582 251C409.32 243.951 403.739 234.735 394.335 225.462ZM357.101 321.842C359.891 307.421 361.722 291.212 362.302 273L412.11 273C408.791 279.909 403.301 288.697 394.335 297.538C385.793 305.96 373.832 314.682 357.101 321.842ZM203.818 354.339C211.183 371.851 220.204 384.011 228.823 392.456C237.596 401.053 246.26 406.114 253 409.073L253 359.565C234.649 358.993 218.328 357.152 203.818 354.339ZM275 359.631L275 409.286C281.807 406.359 290.68 401.263 299.668 392.456C308.267 384.029 317.269 371.904 324.625 354.453C309.976 357.32 293.507 359.154 275 359.631Z" fill="white"/>
<path d="M275 113.365L275.279 109.375C274.172 109.298 273.083 109.684 272.272 110.44C271.461 111.197 271 112.256 271 113.365L275 113.365ZM275.21 113.38L276.914 109.761C276.468 109.551 275.986 109.425 275.494 109.39L275.21 113.38ZM300.283 131.411L297.435 134.219L297.435 134.219L300.283 131.411ZM324.539 168.53L323.772 172.456C325.227 172.74 326.72 172.196 327.651 171.043C328.582 169.889 328.799 168.316 328.215 166.953L324.539 168.53ZM275 163.369L271 163.369C271 165.538 272.729 167.312 274.897 167.368L275 163.369ZM129.143 200.331L125.499 198.681C124.739 200.36 125.225 202.342 126.676 203.479C128.126 204.616 130.166 204.614 131.615 203.475L129.143 200.331ZM203.671 125.99L206.802 128.479C207.951 127.034 207.962 124.992 206.829 123.535C205.696 122.078 203.714 121.585 202.031 122.342L203.671 125.99ZM177.959 175.229L179.182 179.038C180.404 178.645 181.364 177.69 181.762 176.47L177.959 175.229ZM116.365 251L112.375 250.721C112.298 251.828 112.684 252.917 113.44 253.728C114.197 254.539 115.256 255 116.365 255L116.365 251ZM116.368 250.958L112.688 249.391C112.514 249.8 112.409 250.235 112.378 250.678L116.368 250.958ZM133.29 226.078L136.147 228.877L136.147 228.877L133.29 226.078ZM171.292 201.121L175.218 201.889C175.501 200.438 174.962 198.949 173.815 198.017C172.668 197.084 171.1 196.861 169.738 197.435L171.292 201.121ZM166.108 251L166.108 255C168.278 255 170.052 253.27 170.107 251.1L166.108 251ZM203.246 396.818L201.595 400.462C203.275 401.223 205.259 400.737 206.397 399.284C207.534 397.83 207.529 395.788 206.386 394.34L203.246 396.818ZM129.143 322.669L131.615 319.525C130.166 318.386 128.126 318.384 126.676 319.521C125.225 320.658 124.739 322.64 125.499 324.319L129.143 322.669ZM177.971 347.774L181.779 346.551C181.385 345.323 180.422 344.361 179.194 343.966L177.971 347.774ZM400.328 321.616L403.985 323.237C404.733 321.549 404.23 319.569 402.766 318.445C401.303 317.32 399.26 317.342 397.822 318.499L400.328 321.616ZM324.962 397.175L321.831 394.684C320.684 396.127 320.671 398.168 321.8 399.625C322.929 401.082 324.908 401.579 326.592 400.827L324.962 397.175ZM350.516 347.786L349.275 343.983C348.055 344.382 347.1 345.341 346.708 346.563L350.516 347.786ZM400.328 201.384L397.822 204.501C399.26 205.658 401.303 205.68 402.766 204.555C404.23 203.431 404.733 201.451 403.985 199.763L400.328 201.384ZM350.528 175.218L346.725 176.459C347.121 177.672 348.073 178.624 349.287 179.02L350.528 175.218ZM324.538 125.637L326.156 121.979C324.471 121.233 322.493 121.736 321.368 123.197C320.244 124.657 320.263 126.698 321.415 128.137L324.538 125.637ZM133.29 296.922L130.433 299.722L130.433 299.722L133.29 296.922ZM116.785 273L116.785 269C115.431 269 114.17 269.685 113.432 270.819C112.694 271.954 112.58 273.385 113.129 274.622L116.785 273ZM171.406 321.927L169.855 325.615C171.216 326.187 172.781 325.963 173.927 325.032C175.073 324.102 175.614 322.616 175.333 321.166L171.406 321.927ZM166.189 273L170.187 272.873C170.118 270.714 168.348 269 166.189 269L166.189 273ZM253 163.435L253.125 167.433C255.284 167.366 257 165.596 257 163.435L253 163.435ZM253 113.513L257 113.513C257 112.141 256.296 110.864 255.136 110.131C253.976 109.398 252.52 109.311 251.281 109.901L253 113.513ZM203.903 168.644L200.225 167.07C199.643 168.431 199.86 170.003 200.789 171.155C201.719 172.308 203.209 172.853 204.663 172.571L203.903 168.644ZM228.208 131.411L231.056 134.219L231.056 134.219L228.208 131.411ZM195.672 193.013L194.681 189.138C193.27 189.499 192.166 190.599 191.8 192.009L195.672 193.013ZM262.818 185.254L262.791 181.254L262.791 181.254L262.818 185.254ZM187.999 262.927L183.999 262.954L183.999 262.954L187.999 262.927ZM195.741 330.004L191.865 330.994C192.227 332.411 193.334 333.518 194.751 333.88L195.741 330.004ZM262.818 337.746L262.844 333.746L262.844 333.746L262.818 337.746ZM332.732 330.073L333.736 333.945C335.146 333.579 336.246 332.475 336.607 331.064L332.732 330.073ZM340.492 262.927L344.491 262.954L344.491 262.954L340.492 262.927ZM332.8 192.945L336.672 191.939C336.307 190.535 335.21 189.438 333.806 189.073L332.8 192.945ZM357.215 201.206L358.792 197.53C357.43 196.946 355.856 197.163 354.702 198.094C353.549 199.026 353.005 200.518 353.289 201.973L357.215 201.206ZM394.335 225.462L391.526 228.311L391.526 228.311L394.335 225.462ZM362.383 251L358.384 251.1C358.438 253.27 360.212 255 362.383 255L362.383 251ZM412.582 251L412.582 255C413.947 255 415.217 254.304 415.952 253.154C416.687 252.004 416.785 250.559 416.212 249.32L412.582 251ZM362.302 273L362.302 269C360.142 269 358.373 270.714 358.304 272.873L362.302 273ZM357.101 321.842L353.174 321.083C352.893 322.536 353.437 324.026 354.59 324.956C355.742 325.885 357.314 326.102 358.675 325.52L357.101 321.842ZM412.11 273L415.716 274.732C416.311 273.493 416.228 272.034 415.496 270.87C414.764 269.706 413.485 269 412.11 269L412.11 273ZM394.335 297.538L397.143 300.386L397.143 300.386L394.335 297.538ZM228.823 392.456L226.023 395.313L226.023 395.313L228.823 392.456ZM203.818 354.339L204.579 350.413C203.13 350.132 201.643 350.672 200.713 351.818C199.782 352.964 199.558 354.529 200.131 355.89L203.818 354.339ZM253 409.073L251.392 412.735C252.629 413.278 254.056 413.16 255.187 412.422C256.318 411.683 257 410.423 257 409.073L253 409.073ZM253 359.565L257 359.565C257 357.404 255.284 355.634 253.125 355.567L253 359.565ZM275 409.286L271 409.286C271 410.631 271.676 411.886 272.8 412.626C273.923 413.366 275.344 413.492 276.58 412.961L275 409.286ZM275 359.631L274.897 355.632C272.729 355.688 271 357.462 271 359.631L275 359.631ZM299.668 392.456L302.467 395.313L302.467 395.313L299.668 392.456ZM324.625 354.453L328.311 356.007C328.885 354.645 328.661 353.077 327.729 351.93C326.796 350.783 325.307 350.244 323.857 350.528L324.625 354.453ZM274.721 117.356C274.789 117.361 274.857 117.365 274.926 117.37L275.494 109.39C275.422 109.385 275.351 109.38 275.279 109.375L274.721 117.356ZM303.131 128.602C293.688 119.025 284.27 113.226 276.914 109.761L273.506 116.999C280.124 120.116 288.736 125.397 297.435 134.219L303.131 128.602ZM328.215 166.953C320.867 149.824 311.885 137.48 303.131 128.602L297.435 134.219C305.487 142.386 313.908 153.894 320.863 170.107L328.215 166.953ZM274.897 167.368C293.166 167.838 309.383 169.646 323.772 172.456L325.305 164.604C310.44 161.701 293.776 159.851 275.103 159.37L274.897 167.368ZM271 113.365L271 163.369L279 163.369L279 113.365L271 113.365ZM132.788 201.98C147.304 169.908 173.196 144.076 205.311 129.638L202.031 122.342C168.137 137.58 140.82 164.833 125.499 198.681L132.788 201.98ZM176.736 171.421C155.67 178.188 139.32 187.243 126.671 197.186L131.615 203.475C143.47 194.157 158.962 185.533 179.182 179.038L176.736 171.421ZM200.54 123.501C190.376 136.288 181.074 152.785 174.156 173.989L181.762 176.47C188.398 156.131 197.258 140.487 206.802 128.479L200.54 123.501ZM120.356 251.279C120.357 251.265 120.358 251.252 120.359 251.238L112.378 250.678C112.377 250.693 112.376 250.707 112.375 250.721L120.356 251.279ZM130.433 223.278C121.141 232.76 115.769 242.159 112.688 249.391L120.048 252.526C122.791 246.088 127.64 237.558 136.147 228.877L130.433 223.278ZM169.738 197.435C151.808 204.993 139.238 214.292 130.433 223.278L136.147 228.877C144.195 220.663 155.875 211.96 172.846 204.807L169.738 197.435ZM170.107 251.1C170.568 232.693 172.385 216.365 175.218 201.889L167.366 200.352C164.44 215.309 162.58 232.086 162.109 250.9L170.107 251.1ZM116.365 255L166.108 255L166.108 247L116.365 247L116.365 255ZM204.898 393.175C172.974 378.702 147.242 352.955 132.788 321.02L125.499 324.319C140.754 358.022 167.903 385.186 201.595 400.462L204.898 393.175ZM174.162 348.998C180.97 370.194 190.093 386.616 200.107 399.297L206.386 394.34C197.002 382.456 188.313 366.896 181.779 346.551L174.162 348.998ZM126.671 325.814C139.322 335.759 155.676 344.815 176.748 351.583L179.194 343.966C158.968 337.47 143.472 328.845 131.615 319.525L126.671 325.814ZM396.672 319.995C382.193 352.661 355.954 378.962 323.331 393.522L326.592 400.827C361.021 385.461 388.704 357.713 403.985 323.237L396.672 319.995ZM351.757 351.589C373.288 344.564 389.967 335.081 402.835 324.733L397.822 318.499C385.742 328.213 369.929 337.245 349.275 343.983L351.757 351.589ZM328.092 399.665C338.218 386.936 347.451 370.405 354.324 349.01L346.708 346.563C340.111 367.099 331.318 382.759 321.831 394.684L328.092 399.665ZM402.835 198.267C389.97 187.921 373.294 178.44 351.769 171.415L349.287 179.02C369.935 185.758 385.744 194.789 397.822 204.501L402.835 198.267ZM354.33 173.977C347.347 152.577 337.936 135.972 327.66 123.137L321.415 128.137C331.062 140.187 340.026 155.931 346.725 176.459L354.33 173.977ZM322.919 129.295C355.733 143.816 382.132 170.201 396.672 203.005L403.985 199.763C388.64 165.142 360.788 137.305 326.156 121.979L322.919 129.295ZM136.147 294.123C128.032 285.841 123.246 277.698 120.441 271.378L113.129 274.622C116.273 281.708 121.57 290.677 130.433 299.722L136.147 294.123ZM172.956 318.24C155.926 311.078 144.213 302.354 136.147 294.123L130.433 299.722C139.257 308.727 151.863 318.048 169.855 325.615L172.956 318.24ZM162.191 273.127C162.778 291.567 164.635 308.017 167.479 322.688L175.333 321.166C172.578 306.952 170.761 290.928 170.187 272.873L162.191 273.127ZM116.785 277L166.189 277L166.189 269L116.785 269L116.785 277ZM257 163.435L257 113.513L249 113.513L249 163.435L257 163.435ZM204.663 172.571C218.922 169.813 235.001 167.998 253.125 167.433L252.875 159.437C234.367 160.014 217.861 161.87 203.143 164.717L204.663 172.571ZM225.359 128.602C216.586 137.5 207.582 149.88 200.225 167.07L207.58 170.218C214.544 153.946 222.985 142.404 231.056 134.219L225.359 128.602ZM251.281 109.901C243.969 113.381 234.676 119.153 225.359 128.602L231.056 134.219C239.638 125.515 248.137 120.257 254.719 117.125L251.281 109.901ZM196.663 196.889C214.381 192.358 236.138 189.43 262.844 189.254L262.791 181.254C235.534 181.434 213.119 184.424 194.681 189.138L196.663 196.889ZM191.999 262.901C191.815 235.026 194.779 212.39 199.544 194.018L191.8 192.009C186.836 211.147 183.811 234.487 183.999 262.954L191.999 262.901ZM199.617 329.015C195.096 311.309 192.175 289.574 191.999 262.901L183.999 262.954C184.178 290.177 187.161 312.569 191.865 330.994L199.617 329.015ZM262.844 333.746C236.172 333.571 214.436 330.649 196.73 326.129L194.751 333.88C213.176 338.584 235.568 341.567 262.791 341.746L262.844 333.746ZM331.728 326.201C313.356 330.966 290.719 333.93 262.844 333.746L262.791 341.746C291.259 341.934 314.598 338.909 333.736 333.945L331.728 326.201ZM336.492 262.901C336.316 289.607 333.387 311.364 328.857 329.082L336.607 331.064C341.322 312.626 344.312 290.212 344.491 262.954L336.492 262.901ZM328.929 193.95C333.704 212.335 336.676 234.992 336.492 262.901L344.491 262.954C344.679 234.452 341.647 211.09 336.672 191.939L328.929 193.95ZM262.844 189.254C290.753 189.07 313.411 192.041 331.795 196.816L333.806 189.073C314.655 184.099 291.293 181.066 262.791 181.254L262.844 189.254ZM355.638 204.883C371.852 211.837 383.36 220.259 391.526 228.311L397.143 222.614C388.265 213.861 375.921 204.878 358.792 197.53L355.638 204.883ZM366.381 250.9C365.911 232.122 364.058 215.374 361.141 200.44L353.289 201.973C356.113 216.429 357.924 232.729 358.384 251.1L366.381 250.9ZM412.582 247L362.383 247L362.383 255L412.582 255L412.582 247ZM391.526 228.311C400.545 237.203 405.864 246.006 408.952 252.68L416.212 249.32C412.777 241.896 406.934 232.268 397.143 222.614L391.526 228.311ZM358.304 272.873C357.73 290.893 355.92 306.889 353.174 321.083L361.028 322.602C363.863 307.952 365.714 291.531 366.3 273.127L358.304 272.873ZM412.11 269L362.302 269L362.302 277L412.11 277L412.11 269ZM397.143 300.386C406.477 291.183 412.223 282.002 415.716 274.732L408.505 271.268C405.36 277.815 400.124 286.211 391.526 294.689L397.143 300.386ZM358.675 325.52C375.865 318.163 388.245 309.159 397.143 300.386L391.526 294.689C383.341 302.76 371.799 311.201 355.527 318.165L358.675 325.52ZM231.622 389.599C223.391 381.533 214.668 369.82 207.505 352.789L200.131 355.89C207.698 373.883 217.018 386.489 226.023 395.313L231.622 389.599ZM254.608 405.41C248.254 402.621 240.009 397.817 231.622 389.599L226.023 395.313C235.183 404.288 244.265 409.607 251.392 412.735L254.608 405.41ZM249 359.565L249 409.073L257 409.073L257 359.565L249 359.565ZM203.057 358.266C217.797 361.123 234.331 362.985 252.875 363.563L253.125 355.567C234.966 355.001 218.86 353.18 204.579 350.413L203.057 358.266ZM279 409.286L279 359.631L271 359.631L271 409.286L279 409.286ZM296.868 389.599C288.277 398.017 279.834 402.853 273.42 405.611L276.58 412.961C283.781 409.864 293.083 404.508 302.467 395.313L296.868 389.599ZM320.939 352.9C313.785 369.87 305.082 381.55 296.868 389.599L302.467 395.313C311.453 386.508 320.752 373.937 328.311 356.007L320.939 352.9ZM275.103 363.63C293.813 363.148 310.505 361.292 325.393 358.379L323.857 350.528C309.446 353.347 293.201 355.161 274.897 355.632L275.103 363.63Z" fill="white"/>
<circle cx="263" cy="261" r="175" stroke="white" stroke-width="8"/>
<path d="M229.5 230.5H211.5V289H229.5V266H235.5V277H246.5V266H252.5V289H270.5V230.5H252.5V242H246.5V253.5H235.5V242H229.5V230.5Z" fill="black"/>
<path d="M311 230.5H275.5V242.5H298.5V254H275.5V266H298.5V277H275.5V289H311V283.5H317V258.5H311V254H317V235.5H311V230.5Z" fill="black"/>
</svg>
