<?xml version="1.0" encoding="utf-8"?>
<!-- Generator: Adobe Illustrator 25.2.1, SVG Export Plug-In . SVG Version: 6.00 Build 0)  -->
<svg version="1.1" id="Layer_1" xmlns="http://www.w3.org/2000/svg" xmlns:xlink="http://www.w3.org/1999/xlink" x="0px" y="0px"
	 viewBox="0 0 50 50" style="enable-background:new 0 0 50 50;" xml:space="preserve">
<style type="text/css">
	.st0{fill:url(#SVGID_1_);}
	.st1{fill:url(#SVGID_2_);}
</style>
<g>
	<linearGradient id="SVGID_1_" gradientUnits="userSpaceOnUse" x1="25.3741" y1="8.3914" x2="25.3741" y2="39.2773">
		<stop  offset="0" style="stop-color:#64E5F8;stop-opacity:0.05"/>
		<stop  offset="1" style="stop-color:#64E5F8;stop-opacity:0.3"/>
	</linearGradient>
	<polygon class="st0" points="27.98,17.25 22.77,17.55 22.77,18.53 27.98,18.53 	"/>
	<linearGradient id="SVGID_2_" gradientUnits="userSpaceOnUse" x1="24.7469" y1="8.3914" x2="24.7469" y2="39.2773">
		<stop  offset="0" style="stop-color:#64E5F8;stop-opacity:0.05"/>
		<stop  offset="1" style="stop-color:#64E5F8;stop-opacity:0.3"/>
	</linearGradient>
	<path class="st1" d="M33.74,28.44l-1.17-1.91l-0.17-6.23l0.86-0.62l1.81-3.38l0.32-5.99h-1.81l-0.69,5.16l-1.38,2.87l-6.07,3.94
		l-1.5-0.23l-0.58-0.2l-4.68-3.67l-1.12-2.87l-0.8-5l-2.3,0.33l0.81,4.68l1.65,4.05l0.69,0.51v5.13v1.7l-1.81,1.89L9.89,30.5
		l4.56,4.06l9.83,4.63l11.11-4.4l4.21-4.67L33.74,28.44z M23.08,32.24h-8.62v-1.28l8.62,0.3V32.24z M26.77,32.24v-0.98l8.62-0.3
		v1.28H26.77z"/>
</g>
</svg>
