<svg width="54" height="54" viewBox="0 0 54 54" fill="none" xmlns="http://www.w3.org/2000/svg">
<g opacity="0.35">
<path d="M21.1661 44L11 35.0319L11.1099 25.3606L14.3511 19.1117L24.5684 12H36.8687L43 20.3433V27.4757L36.7121 30.0256L26.8863 29.9376L27.3502 32.0554L35.334 34.9053L34.6171 41.0359L21.1661 44ZM13.2802 34.1457L21.8499 41.706L32.5191 39.3556L32.8805 36.2677L25.3576 33.5815L24.0985 27.828L36.2391 27.9353L40.7183 26.1189V20.9777L35.6518 14.0834H25.3395L16.1749 20.4631L13.2802 26.0404V34.1457Z" fill="white"/>
<path d="M25 18.7736L25.6175 16.7054L28.2636 16L31 17.8244L30.1663 19.7228L27.4995 21L25 18.7736Z" fill="#FF5733"/>
<path d="M32 23.3283L32.6188 20.8465L35.2628 20L38 22.1893L37.1665 24.4658L34.5004 26L32 23.3283Z" fill="#FFC300"/>
<path d="M18 22.3275L18.6175 19.8463L21.2636 19L24 21.1887L23.1678 23.4662L20.4995 25L18 22.3275Z" fill="#C70039"/>
<path d="M15.099 31.6614L14 29.4676L15.5885 27.1634L19.205 27L20 29.1835L18.8371 32L15.099 31.6614Z" fill="#2A7B9B"/>
</g>
</svg>
