<?xml version="1.0" encoding="utf-8"?>
<!-- Generator: Adobe Illustrator 25.2.1, SVG Export Plug-In . SVG Version: 6.00 Build 0)  -->
<svg version="1.1" id="Layer_1" xmlns="http://www.w3.org/2000/svg" xmlns:xlink="http://www.w3.org/1999/xlink" x="0px" y="0px"
	 viewBox="0 0 50 50" style="enable-background:new 0 0 50 50;" xml:space="preserve">
<style type="text/css">
	.st0{fill:url(#SVGID_1_);}
	.st1{fill:url(#SVGID_2_);}
	.st2{fill:url(#SVGID_3_);}
	.st3{fill:url(#SVGID_4_);}
	.st4{fill:url(#SVGID_5_);}
	.st5{fill:url(#SVGID_6_);}
</style>
<g>
	<linearGradient id="SVGID_1_" gradientUnits="userSpaceOnUse" x1="24.1296" y1="8.9811" x2="24.1296" y2="38.1556">
		<stop  offset="0" style="stop-color:#64E5F8;stop-opacity:0.05"/>
		<stop  offset="1" style="stop-color:#64E5F8;stop-opacity:0.3"/>
	</linearGradient>
	<path class="st0" d="M27.18,30.56l1.42-3l4.48-3.41h2.08l0.76-1.36l-0.55-4.01l-2.32-0.06l-0.82,1.65h-0.48l0.75-5.91l-1.5-1.86
		l-2.86-2.61h-4.02h-4.02l-2.86,2.61l-1.5,1.86l0.75,5.91h-0.48l-0.82-1.65l-2.32,0.06l-0.55,4.01l2.18,3.88h1.43l0.27,3.24
		l3.27,3.82l3.48,2.29h1.16h1.16l1.85-1.22L27.18,30.56z M25.03,20.3l1.31-1.37h3.53l0.36,0.46l-1.05,1.37l-2.52,0.34l-0.23,0.83
		l1.93,0.46l-0.13,0.88l-2.39-0.46l-0.82-0.69V20.3z M24.66,26.73l1.13-0.74l0.95,0.74l-1.37,1.13h-2.18l-1.6-1.18l0.87-0.68
		l1.1,0.74H24.66z M19.59,22.4l1.93-0.46l-0.23-0.83l-2.52-0.34l-1.05-1.37l0.36-0.46h3.53l1.31,1.37v1.83l-0.82,0.69l-2.39,0.46
		L19.59,22.4z M21.59,30.8v-0.95h5.56v0.95H21.59z"/>
	<g>
		<linearGradient id="SVGID_2_" gradientUnits="userSpaceOnUse" x1="34.1467" y1="8.981" x2="34.1467" y2="38.1556">
			<stop  offset="0" style="stop-color:#64E5F8;stop-opacity:0.05"/>
			<stop  offset="1" style="stop-color:#64E5F8;stop-opacity:0.3"/>
		</linearGradient>
		<path class="st1" d="M31.59,39.5l-4.46-4.3l0.05-4.64l1.42-3l4.48-3.41h5.39l2.69,4v3.42L38.4,32.8l-4.31-0.04l0.2,1.02l3.5,1.37
			l-0.31,2.94L31.59,39.5z M28.13,34.78l3.76,3.63l4.68-1.13l0.16-1.48l-3.3-1.29l-0.55-2.76l5.32,0.05l1.96-0.87v-2.47l-2.22-3.31
			h-4.52l-4.02,3.06l-1.27,2.68V34.78z"/>
	</g>
	<linearGradient id="SVGID_3_" gradientUnits="userSpaceOnUse" x1="34.6708" y1="8.981" x2="34.6708" y2="38.1556">
		<stop  offset="0" style="stop-color:#64E5F8;stop-opacity:0.05"/>
		<stop  offset="1" style="stop-color:#64E5F8;stop-opacity:0.3"/>
	</linearGradient>
	<polygon class="st2" points="33.33,27.51 33.61,26.46 34.79,26.1 36.01,27.03 35.64,27.99 34.45,28.65 	"/>
	<linearGradient id="SVGID_4_" gradientUnits="userSpaceOnUse" x1="37.6712" y1="8.981" x2="37.6712" y2="38.1556">
		<stop  offset="0" style="stop-color:#64E5F8;stop-opacity:0.05"/>
		<stop  offset="1" style="stop-color:#64E5F8;stop-opacity:0.3"/>
	</linearGradient>
	<polygon class="st3" points="36.33,29.68 36.61,28.63 37.79,28.27 39.01,29.2 38.64,30.16 37.45,30.81 	"/>
	<linearGradient id="SVGID_5_" gradientUnits="userSpaceOnUse" x1="31.5393" y1="8.981" x2="31.5393" y2="38.1556">
		<stop  offset="0" style="stop-color:#64E5F8;stop-opacity:0.05"/>
		<stop  offset="1" style="stop-color:#64E5F8;stop-opacity:0.3"/>
	</linearGradient>
	<polygon class="st4" points="30.2,29.17 30.48,28.11 31.66,27.75 32.88,28.68 32.51,29.65 31.32,30.3 	"/>
	<linearGradient id="SVGID_6_" gradientUnits="userSpaceOnUse" x1="29.813" y1="8.981" x2="29.813" y2="38.1556">
		<stop  offset="0" style="stop-color:#64E5F8;stop-opacity:0.05"/>
		<stop  offset="1" style="stop-color:#64E5F8;stop-opacity:0.3"/>
	</linearGradient>
	<polygon class="st5" points="29.01,33.57 28.54,32.58 29.22,31.55 30.75,31.48 31.08,32.45 30.59,33.72 	"/>
</g>
</svg>
