<svg width="78" height="46" viewBox="0 0 78 46" fill="none" xmlns="http://www.w3.org/2000/svg">
<path fill-rule="evenodd" clip-rule="evenodd" d="M76.264 17.8909L69.816 22.5819L56.135 30.2199L54.568 27.4999L58.123 25.4699L57.272 21.2189L53.177 22.6999L51.94 20.6999L60.38 16.4509L68.788 11.3999L73.711 6.40789L77.514 15.8219L76.264 17.8909ZM66.529 6.70189L61.115 7.49889L51.335 9.53789L38.929 13.6809L24.616 19.9849L15.656 25.3439L9.50702 29.9139L4.32002 30.5619L0.468018 29.9159L2.22402 26.9469L7.92502 22.5569L19.247 16.5919L36.12 9.47089L54.843 2.73189L65.878 0.358887L70.936 0.401887L71.779 1.62589L69.991 4.85989L66.529 6.70189ZM27.434 29.9719L31.628 39.9229L21.432 42.6519L9.79902 45.2659L6.26002 44.5309L2.55302 35.5049L12.186 34.3939L27.434 29.9719ZM31.479 22.7749L44.778 17.4019L46.577 18.4129L48.903 24.5999L39.425 26.7819L41.291 30.2829L42.81 34.1959L50.924 29.1719L53.41 35.2699L52.449 37.2469L39.687 42.2299L36.87 41.2819L30.8 24.9049L31.479 22.7749Z" fill="#D0E6DC"/>
</svg>
