<svg width="381" height="397" viewBox="0 0 381 397" fill="none" xmlns="http://www.w3.org/2000/svg">
<path fill-rule="evenodd" clip-rule="evenodd" d="M228.349 59.101L40.999 55.999L43.152 264.5L16.988 281.941L11 27L256.243 29.709L228.349 59.101ZM122.591 342.7L323.999 331.999L337.863 134.256L370.58 105.38L359.875 362.875L115.161 370.56L122.591 342.7Z" fill="#80998F"/>
<path fill-rule="evenodd" clip-rule="evenodd" d="M356.999 56.999L370.74 69.186L214.999 177.999L188.999 147.999L341.999 0L380.999 35.999L356.999 56.999ZM158.999 237.999L122.639 202.839L174.999 151.999L212.999 192.999L158.999 237.999ZM129.999 278.999L130.999 301.999L108.999 309.999L83.999 397L20.999 376.999L0 337.999L73.999 275.999L95.999 269.999L104.999 262.999L114.999 214.999L146.999 247.999L129.999 278.999ZM196.999 236.999L203.999 254.999L167.631 243.139L195.999 222L196.999 236.999Z" fill="white"/>
</svg>
