<svg width="359" height="349" viewBox="0 0 359 349" fill="none" xmlns="http://www.w3.org/2000/svg">
<path fill-rule="evenodd" clip-rule="evenodd" d="M351.155 293.957L304.35 265.687L276.818 278.077L278.194 309.739L324.999 334.518L290.584 348.284L227.259 322.128L223.129 256.051L92.351 126.649L49.676 125.272L9.754 85.35L7 56.441L53.805 81.967L81.338 70.837L79.961 41.298L33.156 13.766L64.818 0L128.143 34.415L133.649 89.48L257.545 216.129L304.35 218.882L351.155 265.687V293.957Z" fill="white"/>
<path fill-rule="evenodd" clip-rule="evenodd" d="M317.307 191.754L328.339 34.401L168.176 31.75L140.997 2L358.339 4.401L350.014 214.921L317.307 191.754ZM27.588 150.09L29.339 319.401L183.066 311.715L214.19 340.122L4.464 346.277L0 130.926L27.588 150.09Z" fill="#80998F"/>
</svg>
