<svg width="360" height="370" viewBox="0 0 360 370" fill="none" xmlns="http://www.w3.org/2000/svg">
<path fill-rule="evenodd" clip-rule="evenodd" d="M308.675 369.168L135.674 171.168L170.674 138.168L359.675 318.168L308.675 369.168ZM85.675 116.168L117.674 83.168L164.855 122.507L120.674 165.168L85.675 116.168ZM1.312 69.418L2.363 55.139L38.953 64.529L0 45.371L16.823 13.764L40.78 33.665L24.473 10.685L43.323 1.008L66.671 31.089L52.512 1.754L72.461 0L105.639 75.162L76.244 103.463L1.312 69.418Z" fill="white"/>
<path fill-rule="evenodd" clip-rule="evenodd" d="M315.733 239.212L329.338 44.711L122.108 41.281L113.974 12L359.338 14.711L349.839 266.298L315.733 239.212ZM28.318 134.415L30.338 329.711L204.891 320.984L229.459 350.016L5.463 356.587L0 124.009L28.318 134.415Z" fill="#80998F"/>
</svg>
