<svg width="362" height="346" viewBox="0 0 362 346" fill="none" xmlns="http://www.w3.org/2000/svg">
<path fill-rule="evenodd" clip-rule="evenodd" d="M294.873 184.808L256.836 166.365L255.683 136.396L229.172 112.191L248.767 96.053L207.271 31.505L248.767 12L283.347 65.22L309.858 77.611L312.163 118.44L334.063 137.549L294.873 184.808ZM215.34 101.817L185.371 82.222L204.966 107.58L237.24 144.465L241.851 174.434L271.82 190.571L254.53 219.387L237.24 214.777L208.424 156.81L142.723 124.87L145.028 68.39L193.44 38.421L228.019 90.29L215.34 101.817ZM217.645 219.387L185.371 285.088L110.449 255.119L65.495 187.113L138.112 139.854L191.134 167.518L217.645 219.387ZM183.066 303.531L173.845 328.889L64.343 301.226L24 205.555L42.442 186.5L101.227 269.41L183.066 303.531Z" fill="white"/>
<path fill-rule="evenodd" clip-rule="evenodd" d="M328.404 85.285L331.999 33.999L300.577 33.479L284.43 3.142L361.999 3.999L357.958 106.19L328.404 85.285ZM138.453 30.795L29.999 28.999L31.235 148.41L4.16 170.973L0 0L189.263 2.91L138.453 30.795ZM32.816 301.255L32.999 318.999L43.663 318.466L43.999 318.999L102.896 343.93L8.124 345.875L6.8 258.833L32.816 301.255ZM214.379 309.931L312.999 304.999L320.11 204.996L355.267 174.236L348.875 335.875L207.54 340.23L214.379 309.931Z" fill="#80998F"/>
</svg>
