<svg width="387" height="387" viewBox="0 0 387 387" fill="none" xmlns="http://www.w3.org/2000/svg">
<path fill-rule="evenodd" clip-rule="evenodd" d="M245.999 195.999L250.999 214.999L177.999 307.999L123.999 302.999L80.999 266.999C80.999 266.999 70.575 207.472 70.999 206.999C71.424 206.526 141.999 136.999 141.999 136.999H161.999L284.999 0L386.999 21.999L245.999 195.999ZM185.999 187.999L143.999 182.999L116.999 211.999L123.944 242.383L141.295 256.429L172.999 258.999L196.999 225.999L185.999 187.999ZM78.999 289.999L92.999 301.999L99.999 309.999L42.999 386.999L0 353.999L72.999 284.999L78.999 289.999Z" fill="white"/>
<path fill-rule="evenodd" clip-rule="evenodd" d="M193.296 53.471L43.999 50.999L46.336 276.885L20.538 300.368L14 22L217.1 24.243L193.296 53.471ZM120.612 337.319L326.999 326.999L340.294 137.377L373.227 96.107L362.875 357.875L98.16 365.643L120.612 337.319Z" fill="#80998F"/>
</svg>
