<svg width="362" height="375" viewBox="0 0 362 375" fill="none" xmlns="http://www.w3.org/2000/svg">
<path fill-rule="evenodd" clip-rule="evenodd" d="M246.984 146.174L256.883 120.412L276.41 120.985L273.867 145.651L246.984 146.174ZM192.496 143.639L169.841 225.935L153.89 96.321L243.815 106.884L210.527 207.904L192.496 143.639ZM192.264 194.959L210.296 241.655L242.718 157.278L262.771 156.585L281.496 223.161L259.877 276.058L276.641 306.382L266.47 317.941L204.983 291.605L173.54 300.372L142.663 290.235L77.836 318.171L74.6 306.382L97.4 275.244L96.792 275.174L74.368 223.161L88.932 162.595L148.846 161.001L167.298 266.621L192.264 194.959ZM71.594 114.974L141.28 117.019L146.795 148.728L74.368 150.574L71.594 114.974ZM31 18.47L75.781 0L124.919 103.652L97.179 102.265L31 18.47Z" fill="white"/>
<path fill-rule="evenodd" clip-rule="evenodd" d="M29.819 68.811L32.705 347.66L312.705 333.66L331.705 62.66L131.512 59.346L120.948 30L361.705 32.66L348.581 364.536L7.83 374.536L0 41.202L29.819 68.811Z" fill="#80998F"/>
</svg>
