<svg width="357" height="348" viewBox="0 0 357 348" fill="none" xmlns="http://www.w3.org/2000/svg">
<path fill-rule="evenodd" clip-rule="evenodd" d="M348.875 335.875L338.31 336.193L313.395 299.353L324.496 141.21C334.77 139.186 346.392 137.62 356.817 135.43L348.875 335.875ZM29.999 28.999L31.34 129.43L3.71 130.764L0 0L199.59 2.199L193.231 31.702L29.999 28.999ZM32.866 306.73L32.999 318.999L139.45 313.697L148.68 341.768L8.124 345.875L6.964 296.493L32.866 306.73Z" fill="#80998F"/>
<path fill-rule="evenodd" clip-rule="evenodd" d="M263.242 132.837L255.992 107.417L314.904 52.0371L343 111.048L263.242 132.837ZM228.801 78.3651L217.019 62.0236L222.457 13L269.587 18.4463L307.653 19.3541L250.553 97.4302L228.801 78.3651ZM236.052 96.5224L258.711 156.441L238.771 211.821L241.49 236.333L290.432 318.948L197.079 348L159.92 262.661L130.01 237.241L173.515 179.138L210.675 139.192L206.143 112.864L192.548 92.8909L191.641 70.1944L200.705 62.9315L217.019 83.8123L236.052 96.5224ZM194.36 138.284L135.448 194.571L96.4759 158.257L101.914 142.823L122.76 140.1L128.198 130.113L126.385 117.404L139.98 111.048L147.231 107.417L148.137 94.7066L162.639 88.3516L178.046 86.5359L186.203 108.325L192.548 121.942L194.36 138.284ZM72.0048 219.084L39.3766 239.057L14 170.059L78.3491 166.428L108.258 198.203L72.0048 219.084ZM125.479 207.281L134.543 212.729L103.727 254.49L91.9442 287.173L63.8477 275.371L43.9092 263.569L81.9745 229.07L125.479 207.281Z" fill="white"/>
</svg>
