<svg width="362" height="357" viewBox="0 0 362 357" fill="none" xmlns="http://www.w3.org/2000/svg">
<path fill-rule="evenodd" clip-rule="evenodd" d="M106.77 41.259L29.999 39.999V262L9.463 356.747L8.124 356.875L0 11L118.556 12.309L106.77 41.259ZM235.701 43.405L227.253 13.511L361.999 14.999L348.875 346.875L334.269 347.391L333 322L324 190L331.999 44.999L235.701 43.405Z" fill="#80998F"/>
<path fill-rule="evenodd" clip-rule="evenodd" d="M312.169 331.197L287.14 356.585L261.939 339.171L265.368 324.813L286.768 306.178L263.546 255.419L266.775 233.78L246.956 203.535L228.734 234.74L225.152 279.255L245.554 328.05L249.858 346.962L96.3399 351.123L96.3079 337.804L103.42 304.333L111.879 278.418L111.631 232.764L104.225 204.52L97.9419 218.854L91.7079 258.36L67.4289 289.095L61.3459 311.133L61.6459 322.54L70.5799 336.575L54.9119 356.011L39.5949 352.607L31.4619 332.844L45.7319 260.175L72.4469 196.153L78.4409 163.081L79.8519 146.082L93.5929 125.746L116.268 119.66L136.215 117.97L143.573 96.876L137.318 88.23L130.863 59.133L133.943 31.88L145.732 9.278L173.88 0L197.88 7.933L211.202 38.003L209.98 66.595L198.334 91.61L198.238 91.695L200.411 98.214L210.246 110.323L239.2 118.131L270.536 123.012L287.303 145.403L283.172 169.292L296.46 204.14L308.272 219.051L313.597 313.085L312.169 331.197Z" fill="white"/>
</svg>
