<svg width="12" height="39" viewBox="0 0 12 39" fill="none" xmlns="http://www.w3.org/2000/svg">
<g clip-path="url(#clip0_207_165)">
<path fill-rule="evenodd" clip-rule="evenodd" d="M8.965 24.655C8.965 25.893 7.961 26.896 6.723 26.896H4.482C3.244 26.896 2.241 25.893 2.241 24.655L0 2.241C0 1.3 1.3 0 2.241 0H8.965C10.203 0 11.206 1.3 11.206 2.241L8.965 24.655ZM5.12 29.138H6.86C8.295 29.138 10.86 30.929 10.86 33.138V34.103C10.86 36.312 8.295 38.103 6.86 38.103H5.12C2.911 38.103 1.12 36.312 1.12 34.103V33.138C1.12 30.929 2.911 29.138 5.12 29.138Z" fill="black"/>
</g>
<defs>
<clipPath id="clip0_207_165">
<rect width="12" height="39" fill="white"/>
</clipPath>
</defs>
</svg>
