<svg width="85" height="28" viewBox="0 0 85 28" fill="none" xmlns="http://www.w3.org/2000/svg">
<path fill-rule="evenodd" clip-rule="evenodd" d="M75.2991 5.26602L71.5021 4.31602L67.1361 4.12702L62.3901 4.88602L57.8331 6.59502L54.4161 9.25202L53.6571 7.73402L55.3651 5.26602L59.5421 2.41802L64.2881 1.89002L68.6551 0.52002L74.1601 1.27902L78.5271 3.17702L80.9951 5.45602L79.6661 7.73402L75.2991 5.26602ZM33.7231 6.78402L27.6481 5.45602L21.5731 5.76002L15.3081 5.64502L9.23306 7.35402L4.10706 10.581L2.77806 7.54402L7.52406 3.36702L14.9281 0.89902L23.8511 0.70902L31.6501 2.38002L37.1401 4.69602L38.6591 6.97402L37.5201 9.25202L33.7231 6.78402ZM19.1051 8.47202H26.5091L31.6351 9.80102L36.9501 12.839L38.2791 14.927L38.8901 18.344L34.4821 14.927L35.5201 19.104L34.4821 22.901L32.7741 25.558L31.2551 25.938H25.9391L17.1601 27.267H13.7891L11.3211 25.369L5.43606 17.965L0.310059 15.876L9.42206 10.94L19.1051 8.47202ZM7.74706 17.64L8.67506 18.921L11.9251 23.563L14.2461 25.884H17.4951H19.3521L17.5861 24.609L15.8771 22.331L14.9281 19.294L15.3081 16.66L16.6701 13.598L9.13906 16.6L7.74706 17.64ZM58.4031 10.181L65.4801 7.90302L74.1601 8.28202L78.5271 10.181L84.6021 15.117L80.4251 17.395L75.6791 23.47L72.4521 26.318L69.3401 26.887L65.4801 26.128L58.5931 25.748L57.7401 24.23L55.9351 21.572L55.5551 19.483L56.5041 15.307L54.9861 16.446L53.6571 18.154L54.3701 13.788L58.4031 10.181ZM69.9511 25.42L72.2721 24.492L73.6641 23.99L76.4501 19.385L78.7711 15.672L72.4521 12.649L67.5161 11.7L68.8501 13.28L69.3401 15.307V18.344L68.4651 21.192L67.1361 24.23L66.2371 24.956L69.9511 25.42Z" fill="#D0E6DC"/>
</svg>
