<svg width="72" height="44" viewBox="0 0 72 44" fill="none" xmlns="http://www.w3.org/2000/svg">
<path fill-rule="evenodd" clip-rule="evenodd" d="M69.555 36.642L64.862 38.07H57.3531L50.548 37.594L47.732 33.073L45.1511 31.169L39.988 27.125L32.244 21.652L28.21 16.179L28.66 11.896L27.722 0.237L36.404 0H47.4971L46.793 8.327L48.4361 15.228L52.425 20.938L63.923 27.6L67.678 29.028L71.198 35.214L69.555 36.642ZM28.959 23.317L40.4571 32.597L44.2121 34.263L47.732 40.449L46.89 41.877L41.396 43.304H33.8871L27.317 42.591L3.38105 37.594L0.800049 36.404V31.883L1.50405 27.362L3.38105 19.51L3.61605 14.276L2.67705 2.617L11.36 2.379H24.31L23.327 11.184L24.97 17.607L28.959 23.317Z" fill="#D0E6DC"/>
</svg>
