<svg width="67" height="69" viewBox="0 0 67 69" fill="none" xmlns="http://www.w3.org/2000/svg">
<path fill-rule="evenodd" clip-rule="evenodd" d="M65.5241 61.9702L66.1691 63.3952L57.7271 66.5122L46.5591 67.3202L45.9511 64.3372L46.7201 63.9902L42.6221 60.4172L38.6301 40.9782L34.1681 24.8132L30.3981 41.9002L24.5961 60.9282L20.5701 63.5252L21.3461 65.1052L20.3101 68.7102L9.29208 67.1682L2.64808 64.9542L2.37608 62.1102L3.14408 60.3602L0.830078 55.9932L3.52208 47.6732L12.6511 18.2112L15.4691 5.62622L17.6751 5.65322L17.9151 2.94422H28.5331L28.7991 2.94522L28.9011 1.63022L40.7091 0.928223L40.7371 2.97722L41.1261 2.97822L50.2071 2.74722L50.7021 5.67522L52.9091 5.58222L54.7011 17.2122L64.1211 48.6772L65.7801 57.7962L64.2431 60.4782L65.5241 61.9702ZM31.3641 3.39522L31.1041 8.45622L37.9871 8.19622L38.1171 2.74622L31.3641 3.39522Z" fill="#D0E6DC"/>
</svg>
