<svg width="24" height="24" viewBox="0 0 24 24" fill="none" xmlns="http://www.w3.org/2000/svg">
<path d="M0 0H24V24H0V0Z" fill="#F12F42"/>
<path fill-rule="evenodd" clip-rule="evenodd" d="M11.999 14.999C10.343 14.999 9 13.656 9 11.999V5.999C9 4.343 10.343 3 11.999 3C13.656 3 14.999 4.343 14.999 5.999V11.999C14.999 13.656 13.656 14.999 11.999 14.999ZM11.999 15.999C13.656 15.999 14.999 17.343 14.999 18.999C14.999 20.656 13.656 21.999 11.999 21.999C10.343 21.999 9 20.656 9 18.999C9 17.343 10.343 15.999 11.999 15.999Z" fill="white"/>
</svg>
