<svg width="81" height="72" viewBox="0 0 81 72" fill="none" xmlns="http://www.w3.org/2000/svg">
<path fill-rule="evenodd" clip-rule="evenodd" d="M75.7519 64.5869L69.9539 66.1199L65.1869 58.4569L66.4749 56.3179L58.6159 35.5049L56.6839 47.7649L57.9719 53.1819L65.5729 64.8719L52.4599 71.9999L42.2039 60.6099L47.4069 38.7099L49.3399 31.6559L53.3899 14.5889L47.3509 13.8999L49.9459 5.2859L31.8559 3.7459L31.9469 2.8589L36.6999 0.799902L48.1799 0.149902L53.2049 3.5709L53.3339 9.7019L63.5119 13.8359L69.6959 33.5089L76.2669 51.7559L78.5859 51.3289L80.2999 60.5949L75.7519 64.5869ZM31.3029 9.1309L31.5839 6.3949L46.6399 7.5019L43.3209 16.1169L49.8549 16.9719L46.2699 32.3679L38.8719 60.8139L27.5099 71.5719L18.1609 66.1199L24.6029 53.6099L25.8909 48.9049L24.7319 35.9319L13.7809 54.6079L15.5839 57.6009L10.1729 64.8719L4.2469 62.4479L0.399902 57.8859L2.8299 49.1899L5.2779 49.4749L13.9099 31.8499L21.2529 11.9819L31.3029 9.1309Z" fill="#D0E6DC"/>
</svg>
