<?xml version="1.0" standalone="no"?>
<!DOCTYPE svg PUBLIC "-//W3C//DTD SVG 20010904//EN"
 "http://www.w3.org/TR/2001/REC-SVG-20010904/DTD/svg10.dtd">
<svg version="1.0" xmlns="http://www.w3.org/2000/svg"
 width="37.000000pt" height="37.000000pt" viewBox="0 0 37.000000 37.000000"
 preserveAspectRatio="xMidYMid meet">

<g transform="translate(0.000000,37.000000) scale(0.100000,-0.100000)"
fill="#000000" stroke="none">
<path d="M58 307 c-36 -21 -38 -25 -38 -74 0 -51 2 -54 40 -78 22 -14 43 -25
47 -25 4 0 38 19 76 41 69 41 70 41 103 25 29 -13 34 -21 34 -50 0 -27 -7 -39
-30 -56 -28 -20 -31 -20 -60 -5 -19 10 -30 23 -30 36 0 27 -24 19 -28 -9 -2
-15 7 -28 37 -46 22 -15 43 -26 46 -26 3 0 24 11 46 25 40 26 40 26 37 81 -3
53 -5 57 -43 79 l-40 24 -73 -45 -74 -45 -31 19 c-43 25 -45 75 -5 105 27 20
29 20 63 4 19 -9 35 -23 35 -32 0 -8 5 -15 10 -15 6 0 10 11 10 24 0 17 -11
30 -36 45 -43 26 -50 26 -96 -2z"/>
</g>
</svg>
