<svg width="69" height="73" viewBox="0 0 69 73" fill="none" xmlns="http://www.w3.org/2000/svg">
<g clip-path="url(#clip0_704_10)">
<path fill-rule="evenodd" clip-rule="evenodd" d="M21.9909 0.655762L18.5819 3.17876L23.2919 12.9758L28.2879 21.1888L27.6959 21.6608L20.3579 14.1528L12.3149 4.30176L8.3409 5.14576L7.1039 9.42276L15.1709 19.5998L21.7529 26.5908L21.1369 27.2748L12.7779 22.1288L3.5009 14.6168L0.149902 16.2418L0.960902 19.9318L10.7079 29.4998L16.9419 32.9408L16.8449 33.7918L9.8529 30.8468L4.9099 27.5028L1.6769 28.8458L1.6469 31.9668L6.9339 36.6578L15.3419 41.3778L25.5399 49.3178L34.3029 53.5128L37.1729 57.1138L37.1199 60.6998L43.5819 72.6858L52.3479 68.8698L62.8009 60.8538L68.8219 52.3778L63.7959 47.2858L58.3669 42.9018L56.6409 42.9218L53.6459 38.9208L52.4179 38.3508L54.7079 27.6218L53.2609 17.5478L53.1109 9.34376L48.2599 10.4928L45.4379 16.2328L44.4339 22.2598L42.1579 25.2348L38.7599 21.9418L34.7259 17.6078L28.7839 9.17976L25.5109 1.91576L21.9909 0.655762Z" fill="#2B313C"/>
</g>
<defs>
<clipPath id="clip0_704_10">
<rect width="69" height="73" fill="white"/>
</clipPath>
</defs>
</svg>
