<svg width="69" height="73" viewBox="0 0 69 73" fill="none" xmlns="http://www.w3.org/2000/svg">
<g clip-path="url(#clip0_704_2)">
<path fill-rule="evenodd" clip-rule="evenodd" d="M47.8 0.655762L50.417 3.17876L45.707 12.9758L40.711 21.1888L41.303 21.6608L48.641 14.1528L56.684 4.30176L60.658 5.14576L61.895 9.42276L53.828 19.5998L47.246 26.5908L47.862 27.2748L56.221 22.1288L65.498 14.6168L68.849 16.2418L68.38 19.9318L58.291 29.4998L52.57 32.9408L52.154 33.7918L59.146 30.8468L64.908 27.5028L67.322 28.8458L67.352 31.9668L62.65 36.6578L53.657 41.3778L43.459 49.3178L34.696 53.5128L31.826 57.1138L31.987 60.6998L25.417 72.6858L16.651 68.8698L6.198 60.8538L0.177002 52.3778L5.203 47.2858L10.632 42.9018L12.358 42.9218L15.353 38.9208L16.581 38.3508L14.291 27.6218L15.738 17.5478L15.888 9.34376L20.973 10.4928L23.561 16.2328L24.565 22.2598L26.841 25.2348L30.239 21.9418L34.273 17.6078L40.215 9.17976L43.488 1.91576L47.8 0.655762Z" fill="#2B313C"/>
</g>
<defs>
<clipPath id="clip0_704_2">
<rect width="69" height="73" fill="white"/>
</clipPath>
</defs>
</svg>
