<svg width="65" height="83" viewBox="0 0 65 83" fill="none" xmlns="http://www.w3.org/2000/svg">
<g clip-path="url(#clip0_704_8)">
<path fill-rule="evenodd" clip-rule="evenodd" d="M64.513 45.3439L61.6 44.7679L57.25 54.6949L52.997 54.8379L57.313 43.9049L52.141 34.1229L45.235 27.3679L38.618 32.5819L29.698 37.6169L30.705 33.7049L30.993 27.6629L17.39 34.1369L8.84603 45.1999C8.84603 45.1999 13.826 56.6669 13.593 56.8529L10.14 56.9959L5.53003 47.6459L1.70003 49.5159L2.79603 41.2799L0.207031 29.9509L1.64603 24.3399L4.95403 14.9889L12.435 7.2209L21.642 0.746898L30.993 0.170898L41.783 0.279898L50.127 4.1999L55.881 9.5219L59.909 16.5719L62.499 21.7509L64.369 30.9399L63.74 39.1399L64.513 45.3439ZM18.19 37.5749L28.835 31.6839L26.253 41.9259L40.344 34.8769L45.667 31.5329L49.551 35.8489L53.867 43.6169L49.983 53.1119L47.105 58.7229L42.214 63.3899L34.877 67.6699L33.7 67.9299L30.849 67.2109L23.656 63.4699L18.333 58.2909L14.449 50.5229L12.147 45.3439L18.19 37.5749ZM18.909 69.7999L18.765 64.4599L28.835 69.5119L33.7 70.5189L36.891 69.6559L45.955 64.4769L46.962 71.8139L50.414 75.5539L33.7 82.4599L15.168 76.4179L17.47 75.4109L18.909 69.7999Z" fill="#2B313C"/>
</g>
<defs>
<clipPath id="clip0_704_8">
<rect width="65" height="83" fill="white"/>
</clipPath>
</defs>
</svg>
