<svg width="80" height="72" viewBox="0 0 80 72" fill="none" xmlns="http://www.w3.org/2000/svg">
<g clip-path="url(#clip0_704_6)">
<path fill-rule="evenodd" clip-rule="evenodd" d="M75.752 64.5869L69.954 66.1199L65.187 58.4569L66.476 56.3179L58.616 35.5049L56.684 47.7649L57.972 53.1819L65.574 64.8719L52.46 71.9999L42.205 60.6099L47.408 38.7099L49.34 31.6559L53.39 14.5889L47.351 13.8999L49.946 5.2859L31.856 3.7469L31.947 2.8589L36.7 0.799902L48.181 0.149902L53.205 3.5719L53.334 9.7019L63.512 13.8359L69.696 33.5089L76.267 51.7559L78.586 51.3289L80.3 60.5949L75.752 64.5869ZM31.303 9.1309L31.584 6.3949L46.64 7.5019L43.322 16.1169L49.856 16.9719L46.27 32.3679L38.873 60.8139L27.51 71.5719L18.161 66.1199L24.603 53.6099L25.892 48.9049L24.732 35.9319L13.781 54.6079L15.585 57.6009L10.174 64.8719L4.24702 62.4479L0.400024 57.8859L2.83002 49.1899L5.27802 49.4759L13.91 31.8499L21.254 11.9819L31.303 9.1309Z" fill="#2B313C"/>
</g>
<defs>
<clipPath id="clip0_704_6">
<rect width="80" height="72" fill="white"/>
</clipPath>
</defs>
</svg>
