<svg width="20" height="20" viewBox="0 0 20 20" fill="none" xmlns="http://www.w3.org/2000/svg">
<path d="M6 5C6.53043 5 7.03914 5.21071 7.41421 5.58579C7.78929 5.96086 8 6.46957 8 7V12C8 12.5304 7.78929 13.0391 7.41421 13.4142C7.03914 13.7893 6.53043 14 6 14C5.46957 14 4.96086 13.7893 4.58579 13.4142C4.21071 13.0391 4 12.5304 4 12V7C4 6.46957 4.21071 5.96086 4.58579 5.58579C4.96086 5.21071 5.46957 5 6 5M12 12C12 14.97 9.84 17.44 7 17.92V20H5V17.92C2.16 17.44 0 14.97 0 12H2C2 13.0609 2.42143 14.0783 3.17157 14.8284C3.92172 15.5786 4.93913 16 6 16C7.06087 16 8.07828 15.5786 8.82843 14.8284C9.57857 14.0783 10 13.0609 10 12H12ZM19.41 7.41L15.17 11.66L16.18 8H12C11.4696 8 10.9609 7.78929 10.5858 7.41421C10.2107 7.03914 10 6.53043 10 6V2C10 1.46957 10.2107 0.960859 10.5858 0.585786C10.9609 0.210714 11.4696 0 12 0H18C18.5304 0 19.0391 0.210714 19.4142 0.585786C19.7893 0.960859 20 1.46957 20 2V6C20 6.55 19.78 7.05 19.41 7.41Z" fill="white"/>
</svg>
