<svg width="19" height="20" viewBox="0 0 19 20" fill="none" xmlns="http://www.w3.org/2000/svg">
<path d="M15.6894 12.5728L14.298 11.165C14.5219 10.7929 14.6898 10.4045 14.8018 10C14.9137 9.59547 14.9697 9.17476 14.9697 8.73786H16.8889C16.8889 9.44984 16.7849 10.1252 16.577 10.7641C16.3691 11.4036 16.0732 12.0065 15.6894 12.5728ZM12.8586 9.66019L7.29293 4.02913V2.91262C7.29293 2.10356 7.57281 1.41586 8.13258 0.849515C8.69234 0.283172 9.37205 0 10.1717 0C10.9714 0 11.6511 0.283172 12.2109 0.849515C12.7706 1.41586 13.0505 2.10356 13.0505 2.91262V8.73786C13.0505 8.91586 13.0307 9.07767 12.991 9.2233C12.9507 9.36893 12.9066 9.51456 12.8586 9.66019ZM9.21212 18.4466V15.4369C7.54882 15.2104 6.1734 14.4621 5.08586 13.1922C3.99832 11.9217 3.45455 10.4369 3.45455 8.73786H5.37374C5.37374 10.0809 5.8417 11.2256 6.77763 12.1718C7.71291 13.1188 8.84428 13.5922 10.1717 13.5922C10.7155 13.5922 11.2314 13.5074 11.7195 13.3379C12.207 13.1676 12.6507 12.9288 13.0505 12.6214L14.4179 14.0049C13.9541 14.377 13.4465 14.6883 12.8951 14.9388C12.343 15.19 11.7551 15.356 11.1313 15.4369V18.4466H9.21212ZM17.6566 20L0 2.13592L1.34343 0.776699L19 18.6408L17.6566 20Z" fill="white"/>
</svg>
