<svg width="13" height="19" viewBox="0 0 13 19" fill="none" xmlns="http://www.w3.org/2000/svg">
<path d="M12.3036 8.5501C12.4719 8.55011 12.6345 8.61246 12.7613 8.72563C12.8881 8.8388 12.9706 8.99513 12.9935 9.1657L13 9.26261V9.73761C13.0001 11.356 12.4021 12.9147 11.3259 14.1008C10.2497 15.287 8.7749 16.013 7.19736 16.1331L7.19643 18.2877C7.19637 18.4682 7.12934 18.642 7.00888 18.7739C6.88842 18.9058 6.72351 18.986 6.54747 18.9983C6.37143 19.0106 6.19739 18.9541 6.06051 18.8402C5.92363 18.7263 5.83412 18.5634 5.81007 18.3846L5.80357 18.2877V16.1331C4.26355 16.0161 2.81995 15.3215 1.74962 14.1827C0.679296 13.0438 0.0575838 11.5408 0.00371446 9.96181L0 9.73761V9.26261C5.40824e-05 9.08208 0.067084 8.90831 0.187546 8.7764C0.308008 8.64449 0.47292 8.56428 0.64896 8.55197C0.825 8.53967 0.999043 8.59619 1.13592 8.71011C1.2728 8.82403 1.36231 8.98687 1.38636 9.1657L1.39286 9.26261V9.73761C1.39275 11.0249 1.87917 12.2625 2.75037 13.1913C3.62157 14.1202 4.81008 14.6684 6.06729 14.7214L6.26786 14.7252H6.73214C7.99042 14.7253 9.2 14.2276 10.1079 13.3363C11.0158 12.445 11.5517 11.2291 11.6034 9.94281L11.6071 9.73761V9.26261C11.6071 9.07364 11.6805 8.89241 11.8111 8.75879C11.9417 8.62517 12.1189 8.5501 12.3036 8.5501V8.5501ZM6.5 0C7.48509 0 8.42983 0.400361 9.1264 1.11301C9.82296 1.82565 10.2143 2.79221 10.2143 3.80004V9.50011C10.2143 10.5079 9.82296 11.4745 9.1264 12.1871C8.42983 12.8998 7.48509 13.3002 6.5 13.3002C5.51491 13.3002 4.57017 12.8998 3.8736 12.1871C3.17704 11.4745 2.78571 10.5079 2.78571 9.50011V3.80004C2.78571 2.79221 3.17704 1.82565 3.8736 1.11301C4.57017 0.400361 5.51491 0 6.5 0V0Z" fill="white"/>
</svg>
