<svg width="65" height="83" viewBox="0 0 65 83" fill="none" xmlns="http://www.w3.org/2000/svg">
<path fill-rule="evenodd" clip-rule="evenodd" d="M64.305 45.172L61.393 44.597L57.043 54.523L52.79 54.667L57.105 43.734L51.933 33.951L45.028 27.197L38.411 32.411L29.491 37.446L30.498 33.534L30.786 27.491L17.173 33.965L8.638 45.029C8.638 45.029 13.619 56.496 13.386 56.681L9.933 56.825L5.323 47.474L1.493 49.345L2.589 41.099L0 29.779L1.438 24.169L4.747 14.818L12.228 7.05L21.435 0.576L30.786 0L41.575 0.099L49.919 4.029L55.674 9.351L59.702 16.4L62.291 21.579L64.162 30.769L63.533 38.969L64.305 45.172ZM17.982 37.404L28.628 31.513L26.045 41.755L40.137 34.706L45.46 31.362L49.344 35.677L53.66 43.446L49.775 52.941L46.898 58.551L42.007 63.209L34.67 67.489L33.493 67.758L30.642 67.039L23.449 63.299L18.126 58.12L14.242 50.352L11.94 45.172L17.982 37.404ZM18.702 69.629L18.558 64.279L28.628 69.341L33.493 70.348L36.684 69.485L45.747 64.306L46.754 71.643L50.207 75.383L33.493 82.288L14.961 76.246L17.263 75.239L18.702 69.629Z" fill="#D0E6DC"/>
</svg>
