<svg 
 xmlns="http://www.w3.org/2000/svg"
 xmlns:xlink="http://www.w3.org/1999/xlink"
 width="75px" height="85px" viewBox="0 0 75 85">
<path fill-rule="evenodd"  fill="#000000"
 d="M50.611,60.810 L50.100,66.945 L64.414,78.959 L65.181,84.71 L16.359,83.816 L16.359,79.470 L29.395,66.434 L28.117,62.88 L14.825,59.21 L14.825,43.684 L74.894,42.662 L74.894,50.330 L50.611,60.810 ZM48.799,9.965 L70.271,0.252 L74.361,8.432 L51.355,16.356 L48.799,9.965 ZM45.243,21.446 L40.409,10.244 L44.499,8.454 L49.333,19.912 L45.243,21.446 ZM25.817,40.872 L16.103,14.544 L14.58,9.176 L33.252,1.508 L45.777,33.460 L25.817,40.872 ZM0.0,44.962 L11.247,45.218 L11.247,55.698 L0.511,49.563 L0.0,44.962 Z"/>
</svg>