<svg width="74" height="77" viewBox="0 0 74 77" fill="none" xmlns="http://www.w3.org/2000/svg">
<g clip-path="url(#clip0_704_4)">
<path fill-rule="evenodd" clip-rule="evenodd" d="M19.271 12.393L13.929 18.707L10.529 27.935L0.859985 45.421L4.45698 49.64L11.14 50.35L15.629 45.421L22.671 41.49L29.228 40.78L33.114 36.192L33.6 26.478L36.757 33.35V40.78L29.957 45.178L24.857 59.506L19.271 64.849L37.971 76.2L65.899 64.849L58.128 61.692L59.585 49.64L57.642 34.492L48.656 21.378L38.942 13.607L50.842 18.707L59.585 28.421L63.227 39.592L63.956 50.278L62.256 59.749L73.913 56.592L72.456 38.864L64.685 17.979L52.299 7.779L36.271 1.222L20.971 0.979004L13.443 8.22L19.271 12.393Z" fill="#2B313C"/>
</g>
<defs>
<clipPath id="clip0_704_4">
<rect width="74" height="77" fill="white"/>
</clipPath>
</defs>
</svg>
