<svg width="73" height="75" viewBox="0 0 73 75" fill="none" xmlns="http://www.w3.org/2000/svg">
<g clip-path="url(#clip0_704_12)">
<path fill-rule="evenodd" clip-rule="evenodd" d="M71.919 66.9171L72.633 69.4591L63.296 72.9061L50.943 73.4811L50.272 70.5001L51.122 69.1311L46.589 66.1651L42.175 44.6651L37.24 26.7861L33.7 44.7891L26.652 66.7301L22.199 69.6031L23.57 71.3501L21.912 74.6301L9.72597 73.6321L2.37697 71.1831L2.75997 67.9271L2.92597 66.1021L0.365967 61.2721L3.34397 52.7001L13.441 19.4841L16.558 5.56514L18.997 5.59514L19.263 2.59914H31.7H31.301L31.414 0.518141L44.474 0.369141L44.505 2.63514L44.935 2.63614L54.979 2.38114L55.526 5.62014L57.968 5.51614L59.949 18.3791L70.368 53.1811L72.203 63.2661L70.503 66.2321L71.919 66.9171ZM34.138 3.98014L33.85 8.69514L41.463 8.40714L41.607 2.38014L34.138 3.98014Z" fill="#2B313C"/>
</g>
<defs>
<clipPath id="clip0_704_12">
<rect width="73" height="75" fill="white"/>
</clipPath>
</defs>
</svg>
